<svg xmlns="http://www.w3.org/2000/svg" xmlns:xlink="http://www.w3.org/1999/xlink" version="1.1" id="Capa_1" x="0px" y="0px" viewBox="0 0 512 512" style="enable-background:new 0 0 512 512;" xml:space="preserve" width="300" height="300" xmlns:svgjs="http://svgjs.dev/svgjs"><g width="100%" height="100%" transform="matrix(1,0,0,1,0,0)"><g>
	<path style="stroke-miterlimit: 10;" d="M492,452c0,22.09-17.908,40-40,40H60&#10;&#9;&#9;c-22.092,0-40-17.91-40-40c0-22.092,17.908-40,40-40h76c0-22.092,17.908-40,40-40h40V212c0-22.092,17.908-40,40-40s40,17.908,40,40&#10;&#9;&#9;v160h40c22.092,0,40,17.908,40,40h76C474.092,412,492,429.908,492,452z M369.172,252H492V20H20v232h122.828 M296,325.172&#10;&#9;&#9;c46.608-16.473,80-60.923,80-113.172c0-66.274-53.726-120-120-120s-120,53.726-120,120c0,52.249,33.392,96.698,80,113.172" fill="none" fill-opacity="1" stroke="#ffffff" stroke-opacity="1" data-original-stroke-color="#000000ff" stroke-width="25" data-original-stroke-width="40"/>
</g></g></svg>