<svg xmlns="http://www.w3.org/2000/svg" xmlns:xlink="http://www.w3.org/1999/xlink" width="130" zoomAndPan="magnify" viewBox="0 0 97.5 97.499997" height="130" preserveAspectRatio="xMidYMid meet" version="1.0"><defs><clipPath id="fd38de6f19"><path d="M 0 0 L 97.003906 0 L 97.003906 97.003906 L 0 97.003906 Z M 0 0 " clip-rule="nonzero"/></clipPath><clipPath id="8ac6ef2725"><path d="M 36.917969 36.367188 L 60.796875 36.367188 L 60.796875 60.242188 L 36.917969 60.242188 Z M 36.917969 36.367188 " clip-rule="nonzero"/></clipPath></defs><g clip-path="url(#fd38de6f19)"><path fill="#d53f34" d="M 97.003906 48.5 C 97.003906 50.089844 96.925781 51.675781 96.769531 53.253906 C 96.613281 54.835938 96.378906 56.40625 96.070312 57.964844 C 95.761719 59.519531 95.375 61.058594 94.914062 62.582031 C 94.453125 64.101562 93.917969 65.59375 93.3125 67.0625 C 92.703125 68.53125 92.023438 69.964844 91.277344 71.363281 C 90.527344 72.765625 89.710938 74.125 88.828125 75.445312 C 87.945312 76.769531 87 78.042969 85.992188 79.269531 C 84.984375 80.5 83.921875 81.671875 82.796875 82.796875 C 81.671875 83.921875 80.5 84.984375 79.269531 85.992188 C 78.042969 87 76.769531 87.945312 75.445312 88.828125 C 74.125 89.710938 72.765625 90.527344 71.363281 91.277344 C 69.964844 92.023438 68.53125 92.703125 67.0625 93.3125 C 65.59375 93.917969 64.101562 94.453125 62.582031 94.914062 C 61.058594 95.375 59.519531 95.761719 57.964844 96.070312 C 56.40625 96.378906 54.835938 96.613281 53.253906 96.769531 C 51.675781 96.925781 50.089844 97.003906 48.5 97.003906 C 46.914062 97.003906 45.328125 96.925781 43.746094 96.769531 C 42.167969 96.613281 40.597656 96.378906 39.039062 96.070312 C 37.480469 95.761719 35.941406 95.375 34.421875 94.914062 C 32.902344 94.453125 31.40625 93.917969 29.941406 93.3125 C 28.472656 92.703125 27.039062 92.023438 25.636719 91.277344 C 24.238281 90.527344 22.875 89.710938 21.554688 88.828125 C 20.234375 87.945312 18.960938 87 17.730469 85.992188 C 16.503906 84.984375 15.328125 83.921875 14.207031 82.796875 C 13.082031 81.671875 12.015625 80.5 11.007812 79.269531 C 10 78.042969 9.054688 76.769531 8.175781 75.445312 C 7.292969 74.125 6.476562 72.765625 5.726562 71.363281 C 4.976562 69.964844 4.300781 68.53125 3.691406 67.0625 C 3.085938 65.59375 2.550781 64.101562 2.089844 62.582031 C 1.628906 61.058594 1.242188 59.519531 0.933594 57.964844 C 0.621094 56.40625 0.390625 54.835938 0.234375 53.253906 C 0.078125 51.675781 0 50.089844 0 48.5 C 0 46.914062 0.078125 45.328125 0.234375 43.746094 C 0.390625 42.167969 0.621094 40.597656 0.933594 39.039062 C 1.242188 37.480469 1.628906 35.941406 2.089844 34.421875 C 2.550781 32.902344 3.085938 31.40625 3.691406 29.941406 C 4.300781 28.472656 4.976562 27.039062 5.726562 25.636719 C 6.476562 24.238281 7.292969 22.875 8.175781 21.554688 C 9.054688 20.234375 10 18.960938 11.007812 17.730469 C 12.015625 16.503906 13.082031 15.328125 14.207031 14.207031 C 15.328125 13.082031 16.503906 12.015625 17.730469 11.007812 C 18.960938 10 20.234375 9.054688 21.554688 8.175781 C 22.875 7.292969 24.238281 6.476562 25.636719 5.726562 C 27.039062 4.976562 28.472656 4.300781 29.941406 3.691406 C 31.40625 3.085938 32.902344 2.550781 34.421875 2.089844 C 35.941406 1.628906 37.480469 1.242188 39.039062 0.933594 C 40.597656 0.621094 42.167969 0.390625 43.746094 0.234375 C 45.328125 0.078125 46.914062 0 48.5 0 C 50.089844 0 51.675781 0.078125 53.253906 0.234375 C 54.835938 0.390625 56.40625 0.621094 57.964844 0.933594 C 59.519531 1.242188 61.058594 1.628906 62.582031 2.089844 C 64.101562 2.550781 65.59375 3.085938 67.0625 3.691406 C 68.53125 4.300781 69.964844 4.976562 71.363281 5.726562 C 72.765625 6.476562 74.125 7.292969 75.445312 8.175781 C 76.769531 9.054688 78.042969 10 79.269531 11.007812 C 80.5 12.015625 81.671875 13.082031 82.796875 14.207031 C 83.921875 15.328125 84.984375 16.503906 85.992188 17.730469 C 87 18.960938 87.945312 20.234375 88.828125 21.554688 C 89.710938 22.875 90.527344 24.238281 91.277344 25.636719 C 92.023438 27.039062 92.703125 28.472656 93.3125 29.941406 C 93.917969 31.40625 94.453125 32.902344 94.914062 34.421875 C 95.375 35.941406 95.761719 37.480469 96.070312 39.039062 C 96.378906 40.597656 96.613281 42.167969 96.769531 43.746094 C 96.925781 45.328125 97.003906 46.914062 97.003906 48.5 Z M 97.003906 48.5 " fill-opacity="1" fill-rule="nonzero"/></g><path fill="#ffffff" d="M 70.886719 48.5 C 70.886719 49.234375 70.851562 49.964844 70.777344 50.695312 C 70.707031 51.425781 70.597656 52.148438 70.457031 52.867188 C 70.3125 53.585938 70.136719 54.296875 69.921875 55 C 69.710938 55.699219 69.464844 56.390625 69.183594 57.066406 C 68.902344 57.746094 68.589844 58.40625 68.242188 59.054688 C 67.898438 59.699219 67.519531 60.328125 67.113281 60.9375 C 66.707031 61.546875 66.269531 62.136719 65.804688 62.703125 C 65.339844 63.269531 64.847656 63.8125 64.328125 64.328125 C 63.8125 64.847656 63.269531 65.339844 62.703125 65.804688 C 62.136719 66.269531 61.546875 66.707031 60.9375 67.113281 C 60.328125 67.519531 59.699219 67.898438 59.054688 68.242188 C 58.40625 68.589844 57.746094 68.902344 57.066406 69.183594 C 56.390625 69.464844 55.699219 69.710938 55 69.921875 C 54.296875 70.136719 53.585938 70.3125 52.867188 70.457031 C 52.148438 70.597656 51.425781 70.707031 50.695312 70.777344 C 49.964844 70.851562 49.234375 70.886719 48.5 70.886719 C 47.769531 70.886719 47.035156 70.851562 46.308594 70.777344 C 45.578125 70.707031 44.851562 70.597656 44.132812 70.457031 C 43.414062 70.3125 42.703125 70.136719 42.003906 69.921875 C 41.300781 69.710938 40.613281 69.464844 39.933594 69.183594 C 39.257812 68.902344 38.59375 68.589844 37.949219 68.242188 C 37.300781 67.898438 36.675781 67.519531 36.066406 67.113281 C 35.457031 66.707031 34.867188 66.269531 34.300781 65.804688 C 33.734375 65.339844 33.191406 64.847656 32.671875 64.328125 C 32.152344 63.8125 31.664062 63.269531 31.199219 62.703125 C 30.730469 62.136719 30.296875 61.546875 29.886719 60.9375 C 29.480469 60.328125 29.105469 59.699219 28.757812 59.054688 C 28.414062 58.40625 28.101562 57.746094 27.820312 57.066406 C 27.539062 56.390625 27.292969 55.699219 27.078125 55 C 26.867188 54.296875 26.6875 53.585938 26.546875 52.867188 C 26.402344 52.148438 26.296875 51.425781 26.222656 50.695312 C 26.152344 49.964844 26.117188 49.234375 26.117188 48.5 C 26.117188 47.769531 26.152344 47.035156 26.222656 46.308594 C 26.296875 45.578125 26.402344 44.851562 26.546875 44.132812 C 26.6875 43.414062 26.867188 42.703125 27.078125 42.003906 C 27.292969 41.300781 27.539062 40.613281 27.820312 39.933594 C 28.101562 39.257812 28.414062 38.59375 28.757812 37.949219 C 29.105469 37.300781 29.480469 36.675781 29.886719 36.066406 C 30.296875 35.457031 30.730469 34.867188 31.199219 34.300781 C 31.664062 33.734375 32.152344 33.191406 32.671875 32.671875 C 33.191406 32.152344 33.734375 31.664062 34.300781 31.199219 C 34.867188 30.730469 35.457031 30.296875 36.066406 29.886719 C 36.675781 29.480469 37.300781 29.105469 37.949219 28.757812 C 38.59375 28.414062 39.257812 28.101562 39.933594 27.820312 C 40.613281 27.539062 41.300781 27.292969 42.003906 27.078125 C 42.703125 26.867188 43.414062 26.6875 44.132812 26.546875 C 44.851562 26.402344 45.578125 26.296875 46.308594 26.222656 C 47.035156 26.152344 47.769531 26.117188 48.5 26.117188 C 49.234375 26.117188 49.964844 26.152344 50.695312 26.222656 C 51.425781 26.296875 52.148438 26.402344 52.867188 26.546875 C 53.585938 26.6875 54.296875 26.867188 55 27.078125 C 55.699219 27.292969 56.390625 27.539062 57.066406 27.820312 C 57.746094 28.101562 58.40625 28.414062 59.054688 28.757812 C 59.699219 29.105469 60.328125 29.480469 60.9375 29.886719 C 61.546875 30.296875 62.136719 30.730469 62.703125 31.199219 C 63.269531 31.664062 63.8125 32.152344 64.328125 32.671875 C 64.847656 33.191406 65.339844 33.734375 65.804688 34.300781 C 66.269531 34.867188 66.707031 35.457031 67.113281 36.066406 C 67.519531 36.675781 67.898438 37.300781 68.242188 37.949219 C 68.589844 38.59375 68.902344 39.257812 69.183594 39.933594 C 69.464844 40.613281 69.710938 41.300781 69.921875 42.003906 C 70.136719 42.703125 70.3125 43.414062 70.457031 44.132812 C 70.597656 44.851562 70.707031 45.578125 70.777344 46.308594 C 70.851562 47.035156 70.886719 47.769531 70.886719 48.5 Z M 70.886719 48.5 " fill-opacity="1" fill-rule="nonzero"/><path fill="#d53f34" d="M 52.820312 48.304688 C 52.523438 47.375 51.363281 46.664062 50.367188 46.757812 C 49.613281 46.828125 49.078125 47.203125 48.691406 47.828125 C 48.605469 47.960938 48.550781 48.039062 48.5 48.054688 C 48.449219 48.039062 48.394531 47.964844 48.3125 47.828125 C 47.921875 47.203125 47.386719 46.828125 46.632812 46.757812 C 45.636719 46.664062 44.480469 47.375 44.183594 48.304688 C 43.816406 49.449219 44.03125 50.453125 44.90625 51.296875 C 45.445312 51.820312 45.972656 52.363281 46.503906 52.894531 C 47.140625 53.527344 47.773438 54.160156 48.425781 54.804688 C 48.425781 54.804688 48.46875 54.859375 48.5 54.882812 C 48.5 54.882812 48.503906 54.882812 48.503906 54.882812 C 48.535156 54.859375 48.578125 54.804688 48.578125 54.804688 C 49.226562 54.160156 49.863281 53.527344 50.496094 52.894531 C 51.03125 52.363281 51.554688 51.820312 52.097656 51.296875 C 52.972656 50.453125 53.183594 49.449219 52.820312 48.304688 Z M 52.820312 48.304688 " fill-opacity="1" fill-rule="nonzero"/><path fill="#d53f34" d="M 56.664062 46.460938 C 55.808594 45.027344 54.585938 44.042969 52.929688 43.675781 C 52.894531 43.667969 52.863281 43.65625 52.828125 43.652344 C 52.40625 43.597656 52.105469 43.703125 51.988281 43.984375 C 51.84375 44.320312 52.015625 44.582031 52.242188 44.808594 C 52.765625 45.335938 53.28125 45.875 53.828125 46.382812 C 54.804688 47.28125 55.195312 48.398438 55.136719 49.710938 C 55.085938 50.78125 54.714844 51.703125 53.964844 52.457031 C 52.445312 53.980469 50.917969 55.492188 49.398438 57.015625 C 49.132812 57.28125 48.839844 57.460938 48.5 57.472656 C 48.164062 57.460938 47.871094 57.28125 47.605469 57.015625 C 46.085938 55.492188 44.558594 53.980469 43.039062 52.457031 C 42.285156 51.703125 41.914062 50.78125 41.867188 49.710938 C 41.804688 48.398438 42.199219 47.28125 43.175781 46.382812 C 43.71875 45.875 44.234375 45.335938 44.761719 44.808594 C 44.984375 44.582031 45.160156 44.320312 45.015625 43.984375 C 44.898438 43.703125 44.59375 43.597656 44.175781 43.652344 C 44.140625 43.65625 44.109375 43.667969 44.074219 43.675781 C 42.417969 44.042969 41.195312 45.027344 40.335938 46.460938 C 39.605469 47.683594 39.445312 49.039062 39.601562 50.441406 C 39.757812 51.851562 40.320312 53.074219 41.304688 54.078125 C 42.792969 55.589844 44.289062 57.101562 45.820312 58.574219 C 46.578125 59.300781 47.5 59.671875 48.425781 59.691406 L 48.425781 59.695312 C 48.449219 59.695312 48.476562 59.691406 48.5 59.691406 C 48.527344 59.691406 48.550781 59.695312 48.578125 59.695312 L 48.578125 59.691406 C 49.503906 59.671875 50.425781 59.300781 51.183594 58.574219 C 52.714844 57.101562 54.207031 55.589844 55.695312 54.078125 C 56.683594 53.074219 57.246094 51.851562 57.402344 50.441406 C 57.558594 49.039062 57.394531 47.683594 56.664062 46.460938 Z M 56.664062 46.460938 " fill-opacity="1" fill-rule="nonzero"/><path fill="#d53f34" d="M 48.5 44.082031 C 50.359375 44.082031 51.863281 42.566406 51.863281 40.695312 C 51.863281 38.824219 50.359375 37.308594 48.5 37.308594 C 46.644531 37.308594 45.140625 38.824219 45.140625 40.695312 C 45.140625 42.566406 46.644531 44.082031 48.5 44.082031 Z M 48.5 44.082031 " fill-opacity="1" fill-rule="nonzero"/><path fill="#ffffff" d="M 52.257812 15.9375 C 51.5625 15.851562 50.957031 15.617188 50.445312 15.238281 C 49.929688 14.855469 49.550781 14.347656 49.304688 13.710938 C 49.058594 13.074219 48.984375 12.332031 49.089844 11.484375 C 49.191406 10.628906 49.441406 9.921875 49.832031 9.363281 C 50.230469 8.800781 50.722656 8.394531 51.3125 8.152344 C 51.90625 7.902344 52.546875 7.820312 53.234375 7.902344 C 53.691406 7.957031 54.105469 8.074219 54.480469 8.25 C 54.855469 8.421875 55.175781 8.652344 55.445312 8.929688 C 55.71875 9.210938 55.929688 9.535156 56.074219 9.914062 C 56.222656 10.285156 56.292969 10.703125 56.292969 11.160156 L 54.617188 10.957031 C 54.609375 10.738281 54.570312 10.539062 54.496094 10.355469 C 54.425781 10.175781 54.324219 10.015625 54.1875 9.878906 C 54.054688 9.742188 53.894531 9.628906 53.707031 9.542969 C 53.527344 9.453125 53.320312 9.394531 53.09375 9.367188 C 52.691406 9.320312 52.328125 9.378906 51.996094 9.542969 C 51.671875 9.707031 51.398438 9.96875 51.183594 10.328125 C 50.972656 10.6875 50.835938 11.140625 50.769531 11.6875 C 50.703125 12.242188 50.730469 12.722656 50.851562 13.125 C 50.972656 13.523438 51.175781 13.835938 51.453125 14.066406 C 51.730469 14.292969 52.070312 14.433594 52.464844 14.480469 C 52.6875 14.507812 52.898438 14.5 53.09375 14.464844 C 53.289062 14.429688 53.46875 14.363281 53.632812 14.269531 C 53.792969 14.175781 53.933594 14.054688 54.050781 13.902344 C 54.171875 13.75 54.261719 13.574219 54.324219 13.367188 L 56 13.570312 C 55.914062 13.925781 55.765625 14.257812 55.550781 14.570312 C 55.34375 14.882812 55.074219 15.152344 54.753906 15.378906 C 54.429688 15.601562 54.058594 15.769531 53.640625 15.875 C 53.21875 15.976562 52.757812 15.996094 52.257812 15.9375 Z M 52.257812 15.9375 " fill-opacity="1" fill-rule="nonzero"/><path fill="#ffffff" d="M 59.183594 17.582031 C 58.621094 17.382812 58.175781 17.09375 57.847656 16.707031 C 57.523438 16.320312 57.324219 15.871094 57.253906 15.363281 C 57.1875 14.855469 57.257812 14.3125 57.460938 13.742188 C 57.664062 13.164062 57.957031 12.699219 58.328125 12.347656 C 58.707031 11.996094 59.140625 11.773438 59.636719 11.675781 C 60.136719 11.582031 60.667969 11.632812 61.230469 11.832031 C 61.800781 12.03125 62.246094 12.324219 62.570312 12.714844 C 62.898438 13.097656 63.09375 13.546875 63.160156 14.054688 C 63.230469 14.5625 63.164062 15.105469 62.957031 15.683594 C 62.753906 16.257812 62.464844 16.71875 62.085938 17.070312 C 61.714844 17.421875 61.277344 17.644531 60.777344 17.742188 C 60.28125 17.835938 59.75 17.785156 59.183594 17.582031 Z M 59.625 16.378906 C 59.878906 16.472656 60.121094 16.476562 60.34375 16.394531 C 60.570312 16.308594 60.773438 16.15625 60.949219 15.933594 C 61.128906 15.714844 61.277344 15.441406 61.390625 15.121094 C 61.507812 14.792969 61.5625 14.492188 61.5625 14.210938 C 61.566406 13.929688 61.503906 13.6875 61.382812 13.484375 C 61.257812 13.28125 61.070312 13.132812 60.8125 13.042969 C 60.550781 12.949219 60.308594 12.945312 60.082031 13.023438 C 59.855469 13.105469 59.65625 13.253906 59.476562 13.472656 C 59.300781 13.691406 59.15625 13.964844 59.039062 14.289062 C 58.925781 14.609375 58.867188 14.914062 58.863281 15.195312 C 58.863281 15.480469 58.921875 15.726562 59.046875 15.933594 C 59.171875 16.140625 59.363281 16.289062 59.625 16.378906 Z M 59.625 16.378906 " fill-opacity="1" fill-rule="nonzero"/><path fill="#ffffff" d="M 66.0625 16.808594 L 64.308594 19.746094 L 62.898438 18.910156 L 65.9375 13.828125 L 67.320312 14.652344 L 66.78125 15.554688 L 66.832031 15.585938 C 67.125 15.355469 67.453125 15.226562 67.808594 15.203125 C 68.164062 15.179688 68.53125 15.28125 68.910156 15.507812 C 69.261719 15.71875 69.523438 15.976562 69.695312 16.285156 C 69.867188 16.597656 69.941406 16.9375 69.914062 17.308594 C 69.890625 17.683594 69.761719 18.066406 69.523438 18.460938 L 67.59375 21.695312 L 66.183594 20.855469 L 67.964844 17.875 C 68.148438 17.566406 68.214844 17.277344 68.15625 17.007812 C 68.101562 16.730469 67.933594 16.511719 67.652344 16.34375 C 67.464844 16.230469 67.269531 16.175781 67.074219 16.171875 C 66.878906 16.167969 66.695312 16.21875 66.519531 16.324219 C 66.347656 16.429688 66.195312 16.59375 66.0625 16.808594 Z M 66.0625 16.808594 " fill-opacity="1" fill-rule="nonzero"/><path fill="#ffffff" d="M 74.542969 19.800781 L 73.75 20.75 L 71 18.480469 L 71.792969 17.527344 Z M 73.320312 16.960938 L 74.582031 18.003906 L 71.058594 22.238281 C 70.929688 22.390625 70.871094 22.53125 70.878906 22.660156 C 70.886719 22.785156 70.964844 22.910156 71.117188 23.035156 C 71.164062 23.074219 71.222656 23.117188 71.289062 23.15625 C 71.355469 23.199219 71.417969 23.234375 71.46875 23.257812 L 70.882812 24.367188 C 70.710938 24.292969 70.550781 24.210938 70.402344 24.121094 C 70.261719 24.035156 70.125 23.941406 70 23.835938 C 69.546875 23.460938 69.289062 23.058594 69.226562 22.628906 C 69.167969 22.195312 69.3125 21.773438 69.65625 21.359375 Z M 73.320312 16.960938 " fill-opacity="1" fill-rule="nonzero"/><path fill="#ffffff" d="M 72.460938 26.242188 C 72.210938 25.964844 72.035156 25.667969 71.933594 25.359375 C 71.835938 25.046875 71.828125 24.742188 71.914062 24.441406 C 71.996094 24.144531 72.183594 23.863281 72.472656 23.605469 C 72.722656 23.386719 72.96875 23.25 73.210938 23.191406 C 73.457031 23.132812 73.703125 23.136719 73.945312 23.203125 C 74.1875 23.265625 74.421875 23.375 74.652344 23.523438 C 74.878906 23.675781 75.105469 23.851562 75.324219 24.054688 C 75.574219 24.289062 75.78125 24.472656 75.945312 24.609375 C 76.109375 24.742188 76.242188 24.824219 76.355469 24.851562 C 76.472656 24.882812 76.574219 24.855469 76.667969 24.773438 L 76.6875 24.757812 C 76.871094 24.59375 76.960938 24.410156 76.957031 24.207031 C 76.957031 24.003906 76.863281 23.796875 76.675781 23.589844 C 76.484375 23.371094 76.277344 23.238281 76.0625 23.195312 C 75.851562 23.148438 75.652344 23.171875 75.46875 23.261719 L 74.546875 22.046875 C 74.867188 21.863281 75.203125 21.773438 75.546875 21.765625 C 75.898438 21.761719 76.242188 21.84375 76.585938 22.015625 C 76.933594 22.1875 77.265625 22.449219 77.582031 22.804688 C 77.800781 23.050781 77.980469 23.308594 78.121094 23.585938 C 78.265625 23.859375 78.351562 24.140625 78.386719 24.421875 C 78.421875 24.703125 78.394531 24.980469 78.292969 25.25 C 78.195312 25.523438 78.015625 25.773438 77.753906 26.007812 L 74.761719 28.65625 L 73.722656 27.488281 L 74.339844 26.941406 L 74.3125 26.910156 C 74.109375 26.960938 73.902344 26.976562 73.691406 26.953125 C 73.480469 26.925781 73.273438 26.855469 73.0625 26.742188 C 72.855469 26.628906 72.65625 26.460938 72.460938 26.242188 Z M 73.625 25.84375 C 73.785156 26.023438 73.960938 26.148438 74.152344 26.222656 C 74.351562 26.296875 74.546875 26.316406 74.738281 26.285156 C 74.929688 26.253906 75.105469 26.171875 75.257812 26.035156 L 75.730469 25.617188 C 75.675781 25.601562 75.605469 25.570312 75.523438 25.519531 C 75.441406 25.472656 75.359375 25.414062 75.269531 25.347656 C 75.179688 25.28125 75.09375 25.210938 75.007812 25.140625 C 74.925781 25.070312 74.847656 25.003906 74.777344 24.949219 C 74.628906 24.820312 74.480469 24.726562 74.335938 24.660156 C 74.195312 24.589844 74.058594 24.5625 73.925781 24.570312 C 73.796875 24.582031 73.671875 24.636719 73.558594 24.742188 C 73.390625 24.890625 73.316406 25.0625 73.339844 25.261719 C 73.359375 25.457031 73.453125 25.652344 73.625 25.84375 Z M 73.625 25.84375 " fill-opacity="1" fill-rule="nonzero"/><path fill="#ffffff" d="M 76.765625 31.984375 C 76.453125 31.464844 76.296875 30.957031 76.292969 30.453125 C 76.292969 29.945312 76.429688 29.476562 76.699219 29.042969 C 76.972656 28.605469 77.367188 28.234375 77.882812 27.925781 C 78.40625 27.613281 78.921875 27.4375 79.4375 27.402344 C 79.953125 27.367188 80.433594 27.46875 80.878906 27.707031 C 81.328125 27.949219 81.703125 28.324219 82.015625 28.835938 C 82.28125 29.277344 82.433594 29.710938 82.472656 30.136719 C 82.511719 30.566406 82.441406 30.964844 82.269531 31.332031 C 82.09375 31.699219 81.816406 32.011719 81.433594 32.265625 L 80.632812 30.941406 C 80.789062 30.816406 80.90625 30.675781 80.988281 30.519531 C 81.066406 30.367188 81.101562 30.203125 81.09375 30.03125 C 81.085938 29.859375 81.027344 29.6875 80.925781 29.515625 C 80.792969 29.296875 80.617188 29.144531 80.402344 29.050781 C 80.191406 28.960938 79.945312 28.9375 79.660156 28.984375 C 79.382812 29.03125 79.085938 29.148438 78.761719 29.339844 C 78.441406 29.535156 78.191406 29.742188 78.015625 29.96875 C 77.839844 30.199219 77.738281 30.429688 77.714844 30.660156 C 77.691406 30.898438 77.746094 31.125 77.875 31.339844 C 78.023438 31.582031 78.222656 31.742188 78.472656 31.816406 C 78.730469 31.890625 79.003906 31.867188 79.296875 31.742188 L 80.09375 33.066406 C 79.695312 33.277344 79.289062 33.378906 78.878906 33.371094 C 78.472656 33.359375 78.085938 33.238281 77.71875 33.007812 C 77.355469 32.777344 77.039062 32.4375 76.765625 31.984375 Z M 76.765625 31.984375 " fill-opacity="1" fill-rule="nonzero"/><path fill="#ffffff" d="M 85.207031 35.660156 L 84.058594 36.128906 L 82.703125 32.835938 L 83.851562 32.367188 Z M 85.46875 32.582031 L 86.089844 34.09375 L 80.980469 36.179688 C 80.796875 36.253906 80.679688 36.351562 80.625 36.46875 C 80.574219 36.585938 80.582031 36.734375 80.65625 36.914062 C 80.679688 36.972656 80.710938 37.035156 80.753906 37.101562 C 80.792969 37.171875 80.828125 37.226562 80.863281 37.273438 L 79.820312 37.980469 C 79.703125 37.832031 79.601562 37.6875 79.515625 37.539062 C 79.429688 37.394531 79.355469 37.246094 79.292969 37.097656 C 79.070312 36.554688 79.03125 36.078125 79.183594 35.667969 C 79.335938 35.257812 79.660156 34.953125 80.160156 34.75 Z M 85.46875 32.582031 " fill-opacity="1" fill-rule="nonzero"/><path fill="#ffffff" d="M 89.347656 45.613281 L 89.539062 47.269531 L 84.441406 47.855469 C 83.867188 47.921875 83.351562 47.84375 82.886719 47.621094 C 82.425781 47.398438 82.046875 47.058594 81.753906 46.597656 C 81.457031 46.140625 81.273438 45.585938 81.195312 44.9375 C 81.121094 44.289062 81.175781 43.710938 81.359375 43.195312 C 81.539062 42.679688 81.832031 42.265625 82.226562 41.945312 C 82.628906 41.625 83.117188 41.433594 83.691406 41.367188 L 88.789062 40.78125 L 88.980469 42.429688 L 84.019531 43 C 83.71875 43.035156 83.460938 43.132812 83.238281 43.292969 C 83.023438 43.453125 82.863281 43.660156 82.753906 43.914062 C 82.652344 44.164062 82.621094 44.453125 82.65625 44.769531 C 82.695312 45.09375 82.792969 45.367188 82.949219 45.589844 C 83.109375 45.8125 83.316406 45.972656 83.5625 46.078125 C 83.8125 46.183594 84.085938 46.21875 84.386719 46.183594 Z M 89.347656 45.613281 " fill-opacity="1" fill-rule="nonzero"/><path fill="#ffffff" d="M 85.375 55.148438 L 85.425781 53.652344 C 85.617188 53.628906 85.785156 53.542969 85.9375 53.386719 C 86.089844 53.230469 86.179688 53.011719 86.207031 52.726562 C 86.230469 52.472656 86.195312 52.257812 86.109375 52.074219 C 86.019531 51.894531 85.886719 51.796875 85.710938 51.78125 C 85.566406 51.769531 85.441406 51.8125 85.328125 51.910156 C 85.21875 52.011719 85.125 52.199219 85.042969 52.460938 L 84.730469 53.511719 C 84.558594 54.074219 84.332031 54.480469 84.042969 54.738281 C 83.757812 54.996094 83.398438 55.101562 82.972656 55.0625 C 82.582031 55.027344 82.25 54.882812 81.980469 54.628906 C 81.710938 54.378906 81.515625 54.046875 81.386719 53.636719 C 81.261719 53.230469 81.222656 52.773438 81.269531 52.261719 C 81.34375 51.484375 81.566406 50.878906 81.9375 50.445312 C 82.308594 50.015625 82.777344 49.789062 83.347656 49.765625 L 83.28125 51.367188 C 83.035156 51.398438 82.84375 51.5 82.703125 51.675781 C 82.5625 51.847656 82.476562 52.082031 82.449219 52.375 C 82.421875 52.65625 82.457031 52.894531 82.554688 53.078125 C 82.648438 53.269531 82.78125 53.371094 82.957031 53.386719 C 83.25 53.414062 83.46875 53.179688 83.621094 52.683594 L 83.925781 51.6875 C 84.097656 51.128906 84.335938 50.71875 84.644531 50.464844 C 84.953125 50.210938 85.328125 50.105469 85.769531 50.144531 C 86.148438 50.179688 86.464844 50.316406 86.722656 50.546875 C 86.976562 50.78125 87.160156 51.089844 87.273438 51.476562 C 87.386719 51.867188 87.417969 52.3125 87.371094 52.8125 C 87.300781 53.558594 87.085938 54.128906 86.730469 54.523438 C 86.375 54.921875 85.925781 55.128906 85.375 55.148438 Z M 85.375 55.148438 " fill-opacity="1" fill-rule="nonzero"/><path fill="#ffffff" d="M 82.824219 61.472656 L 84.191406 62.085938 L 83.835938 60.628906 L 84.867188 60.449219 L 85.015625 61.9375 L 86.101562 60.902344 L 86.777344 61.710938 L 85.554688 62.585938 L 86.996094 63.007812 L 86.636719 63.976562 L 85.265625 63.371094 L 85.621094 64.824219 L 84.582031 64.996094 L 84.433594 63.515625 L 83.347656 64.542969 L 82.683594 63.746094 L 83.902344 62.867188 L 82.464844 62.441406 Z M 82.824219 61.472656 " fill-opacity="1" fill-rule="nonzero"/><path fill="#ffffff" d="M 74.582031 69.171875 C 75.007812 68.617188 75.511719 68.210938 76.101562 67.960938 C 76.691406 67.710938 77.324219 67.640625 78 67.75 C 78.675781 67.859375 79.355469 68.167969 80.039062 68.683594 C 80.726562 69.203125 81.214844 69.773438 81.503906 70.394531 C 81.792969 71.019531 81.894531 71.644531 81.8125 72.277344 C 81.726562 72.914062 81.476562 73.503906 81.058594 74.054688 C 80.78125 74.421875 80.46875 74.722656 80.128906 74.953125 C 79.789062 75.191406 79.433594 75.351562 79.050781 75.441406 C 78.675781 75.539062 78.285156 75.554688 77.882812 75.488281 C 77.488281 75.429688 77.089844 75.28125 76.695312 75.050781 L 77.714844 73.710938 C 77.902344 73.8125 78.097656 73.878906 78.292969 73.910156 C 78.488281 73.941406 78.679688 73.929688 78.867188 73.882812 C 79.050781 73.835938 79.230469 73.753906 79.398438 73.640625 C 79.566406 73.527344 79.71875 73.382812 79.859375 73.199219 C 80.101562 72.878906 80.234375 72.535156 80.257812 72.164062 C 80.28125 71.800781 80.1875 71.4375 79.984375 71.070312 C 79.78125 70.707031 79.457031 70.363281 79.015625 70.03125 C 78.570312 69.691406 78.140625 69.472656 77.730469 69.375 C 77.320312 69.28125 76.949219 69.296875 76.609375 69.421875 C 76.273438 69.546875 75.980469 69.765625 75.742188 70.085938 C 75.605469 70.261719 75.503906 70.445312 75.4375 70.632812 C 75.371094 70.820312 75.335938 71.007812 75.335938 71.195312 C 75.335938 71.378906 75.371094 71.5625 75.441406 71.738281 C 75.511719 71.917969 75.621094 72.089844 75.769531 72.242188 L 74.75 73.585938 C 74.488281 73.332031 74.273438 73.035156 74.109375 72.695312 C 73.945312 72.359375 73.84375 71.992188 73.808594 71.601562 C 73.777344 71.210938 73.820312 70.808594 73.941406 70.394531 C 74.0625 69.980469 74.277344 69.574219 74.582031 69.171875 Z M 74.582031 69.171875 " fill-opacity="1" fill-rule="nonzero"/><path fill="#ffffff" d="M 69.667969 74.316406 C 70.125 73.929688 70.601562 73.691406 71.101562 73.601562 C 71.597656 73.515625 72.085938 73.570312 72.5625 73.765625 C 73.039062 73.964844 73.472656 74.292969 73.867188 74.753906 C 74.269531 75.222656 74.527344 75.707031 74.644531 76.203125 C 74.761719 76.703125 74.738281 77.191406 74.570312 77.667969 C 74.402344 78.148438 74.089844 78.578125 73.636719 78.964844 C 73.175781 79.351562 72.699219 79.589844 72.199219 79.675781 C 71.699219 79.765625 71.214844 79.710938 70.738281 79.511719 C 70.261719 79.316406 69.824219 78.988281 69.425781 78.519531 C 69.03125 78.058594 68.773438 77.574219 68.65625 77.074219 C 68.539062 76.578125 68.5625 76.089844 68.730469 75.609375 C 68.898438 75.136719 69.210938 74.703125 69.667969 74.316406 Z M 70.492188 75.296875 C 70.285156 75.472656 70.160156 75.679688 70.117188 75.914062 C 70.078125 76.148438 70.113281 76.398438 70.214844 76.664062 C 70.316406 76.929688 70.480469 77.191406 70.699219 77.453125 C 70.925781 77.714844 71.160156 77.917969 71.40625 78.058594 C 71.648438 78.199219 71.886719 78.269531 72.125 78.265625 C 72.363281 78.261719 72.589844 78.171875 72.796875 77.996094 C 73.007812 77.820312 73.132812 77.609375 73.179688 77.375 C 73.21875 77.140625 73.191406 76.890625 73.089844 76.628906 C 72.988281 76.367188 72.828125 76.105469 72.601562 75.84375 C 72.378906 75.582031 72.144531 75.378906 71.902344 75.234375 C 71.65625 75.09375 71.410156 75.019531 71.167969 75.023438 C 70.929688 75.027344 70.703125 75.117188 70.492188 75.296875 Z M 70.492188 75.296875 " fill-opacity="1" fill-rule="nonzero"/><path fill="#ffffff" d="M 66.898438 80.632812 L 65.222656 77.652344 L 66.65625 76.855469 L 69.550781 82.015625 L 68.144531 82.800781 L 67.628906 81.878906 L 67.578125 81.910156 C 67.628906 82.277344 67.578125 82.621094 67.421875 82.941406 C 67.261719 83.257812 66.988281 83.527344 66.605469 83.742188 C 66.246094 83.941406 65.890625 84.035156 65.535156 84.027344 C 65.179688 84.019531 64.84375 83.914062 64.535156 83.707031 C 64.222656 83.5 63.957031 83.195312 63.730469 82.789062 L 61.886719 79.507812 L 63.320312 78.710938 L 65.019531 81.738281 C 65.195312 82.054688 65.414062 82.253906 65.679688 82.339844 C 65.945312 82.433594 66.222656 82.398438 66.507812 82.238281 C 66.699219 82.128906 66.84375 81.992188 66.945312 81.824219 C 67.046875 81.660156 67.09375 81.472656 67.089844 81.269531 C 67.085938 81.066406 67.023438 80.855469 66.898438 80.632812 Z M 66.898438 80.632812 " fill-opacity="1" fill-rule="nonzero"/><path fill="#ffffff" d="M 60.046875 86.449219 L 59.617188 85.289062 L 62.96875 84.058594 L 63.398438 85.21875 Z M 63.125 86.820312 L 61.585938 87.386719 L 59.675781 82.222656 C 59.609375 82.039062 59.515625 81.917969 59.398438 81.859375 C 59.285156 81.800781 59.136719 81.808594 58.953125 81.875 C 58.894531 81.898438 58.828125 81.925781 58.757812 81.960938 C 58.691406 82 58.632812 82.035156 58.582031 82.066406 L 57.914062 81.003906 C 58.0625 80.894531 58.214844 80.796875 58.367188 80.714844 C 58.511719 80.632812 58.664062 80.566406 58.816406 80.511719 C 59.371094 80.308594 59.851562 80.285156 60.253906 80.449219 C 60.660156 80.617188 60.953125 80.953125 61.140625 81.457031 Z M 63.125 86.820312 " fill-opacity="1" fill-rule="nonzero"/><path fill="#ffffff" d="M 55.472656 81.425781 C 55.839844 81.351562 56.183594 81.351562 56.503906 81.417969 C 56.824219 81.492188 57.089844 81.640625 57.308594 81.859375 C 57.527344 82.082031 57.675781 82.386719 57.753906 82.765625 C 57.816406 83.089844 57.8125 83.371094 57.738281 83.609375 C 57.664062 83.851562 57.539062 84.058594 57.363281 84.234375 C 57.183594 84.410156 56.972656 84.558594 56.726562 84.679688 C 56.480469 84.800781 56.214844 84.90625 55.929688 84.992188 C 55.597656 85.089844 55.335938 85.175781 55.136719 85.25 C 54.9375 85.320312 54.796875 85.398438 54.71875 85.480469 C 54.632812 85.5625 54.601562 85.667969 54.628906 85.789062 L 54.632812 85.8125 C 54.679688 86.050781 54.796875 86.222656 54.972656 86.324219 C 55.148438 86.425781 55.375 86.445312 55.648438 86.390625 C 55.9375 86.332031 56.15625 86.222656 56.300781 86.0625 C 56.445312 85.902344 56.527344 85.722656 56.542969 85.515625 L 58.0625 85.335938 C 58.054688 85.703125 57.96875 86.039062 57.796875 86.335938 C 57.628906 86.640625 57.382812 86.898438 57.0625 87.105469 C 56.734375 87.320312 56.339844 87.472656 55.875 87.566406 C 55.554688 87.628906 55.238281 87.65625 54.925781 87.636719 C 54.617188 87.621094 54.332031 87.554688 54.070312 87.441406 C 53.804688 87.332031 53.582031 87.167969 53.394531 86.945312 C 53.210938 86.726562 53.082031 86.445312 53.011719 86.101562 L 52.222656 82.191406 L 53.757812 81.882812 L 53.921875 82.691406 L 53.960938 82.683594 C 54.019531 82.484375 54.109375 82.296875 54.238281 82.125 C 54.367188 81.960938 54.535156 81.816406 54.734375 81.691406 C 54.9375 81.574219 55.183594 81.484375 55.472656 81.425781 Z M 55.234375 82.628906 C 55 82.675781 54.800781 82.765625 54.636719 82.894531 C 54.472656 83.027344 54.355469 83.183594 54.289062 83.363281 C 54.21875 83.546875 54.203125 83.738281 54.242188 83.9375 L 54.367188 84.554688 C 54.410156 84.515625 54.472656 84.472656 54.558594 84.425781 C 54.640625 84.382812 54.730469 84.335938 54.835938 84.296875 C 54.9375 84.253906 55.042969 84.210938 55.144531 84.171875 C 55.25 84.136719 55.34375 84.105469 55.429688 84.074219 C 55.613281 84.007812 55.769531 83.929688 55.902344 83.835938 C 56.03125 83.75 56.125 83.648438 56.183594 83.527344 C 56.242188 83.410156 56.253906 83.277344 56.222656 83.125 C 56.179688 82.90625 56.066406 82.757812 55.882812 82.675781 C 55.699219 82.59375 55.484375 82.578125 55.234375 82.628906 Z M 55.234375 82.628906 " fill-opacity="1" fill-rule="nonzero"/><path fill="#ffffff" d="M 48.328125 82.238281 C 48.933594 82.230469 49.457031 82.351562 49.894531 82.605469 C 50.335938 82.859375 50.671875 83.210938 50.914062 83.664062 C 51.152344 84.117188 51.277344 84.644531 51.285156 85.246094 C 51.292969 85.851562 51.183594 86.382812 50.957031 86.847656 C 50.726562 87.308594 50.394531 87.671875 49.964844 87.933594 C 49.53125 88.195312 49.015625 88.332031 48.414062 88.339844 C 47.898438 88.347656 47.445312 88.261719 47.058594 88.078125 C 46.664062 87.898438 46.355469 87.640625 46.121094 87.304688 C 45.890625 86.96875 45.761719 86.574219 45.734375 86.113281 L 47.285156 86.09375 C 47.316406 86.289062 47.378906 86.460938 47.472656 86.609375 C 47.566406 86.757812 47.691406 86.867188 47.84375 86.949219 C 47.996094 87.027344 48.175781 87.066406 48.375 87.0625 C 48.628906 87.058594 48.851562 86.988281 49.042969 86.847656 C 49.226562 86.710938 49.371094 86.507812 49.472656 86.242188 C 49.574219 85.980469 49.621094 85.664062 49.613281 85.289062 C 49.609375 84.914062 49.554688 84.59375 49.445312 84.328125 C 49.335938 84.0625 49.1875 83.859375 48.996094 83.722656 C 48.804688 83.582031 48.582031 83.515625 48.328125 83.519531 C 48.042969 83.523438 47.804688 83.613281 47.613281 83.792969 C 47.421875 83.976562 47.304688 84.222656 47.261719 84.539062 L 45.714844 84.558594 C 45.730469 84.109375 45.847656 83.707031 46.0625 83.359375 C 46.277344 83.015625 46.574219 82.742188 46.957031 82.542969 C 47.34375 82.347656 47.796875 82.246094 48.328125 82.238281 Z M 48.328125 82.238281 " fill-opacity="1" fill-rule="nonzero"/><path fill="#ffffff" d="M 40.863281 87.660156 L 41.035156 86.433594 L 44.574219 86.921875 L 44.402344 88.148438 Z M 43.40625 89.429688 L 41.78125 89.207031 L 42.539062 83.757812 C 42.566406 83.5625 42.542969 83.410156 42.46875 83.304688 C 42.390625 83.203125 42.257812 83.136719 42.066406 83.109375 C 42.003906 83.101562 41.929688 83.097656 41.851562 83.097656 C 41.773438 83.097656 41.707031 83.101562 41.648438 83.105469 L 41.558594 81.855469 C 41.746094 81.828125 41.925781 81.8125 42.09375 81.8125 C 42.265625 81.808594 42.429688 81.820312 42.589844 81.84375 C 43.175781 81.921875 43.605469 82.128906 43.886719 82.464844 C 44.164062 82.800781 44.265625 83.238281 44.191406 83.765625 Z M 43.40625 89.429688 " fill-opacity="1" fill-rule="nonzero"/><path fill="#ffffff" d="M 30.140625 86.226562 L 28.609375 85.558594 L 30.664062 80.871094 C 30.894531 80.347656 31.222656 79.9375 31.652344 79.652344 C 32.074219 79.367188 32.558594 79.210938 33.105469 79.1875 C 33.652344 79.164062 34.226562 79.28125 34.828125 79.542969 C 35.425781 79.804688 35.902344 80.144531 36.257812 80.558594 C 36.613281 80.976562 36.828125 81.433594 36.90625 81.9375 C 36.980469 82.445312 36.902344 82.960938 36.671875 83.488281 L 34.617188 88.171875 L 33.089844 87.507812 L 35.089844 82.949219 C 35.210938 82.671875 35.253906 82.402344 35.226562 82.128906 C 35.199219 81.863281 35.097656 81.621094 34.933594 81.402344 C 34.765625 81.1875 34.53125 81.015625 34.238281 80.886719 C 33.9375 80.757812 33.652344 80.703125 33.378906 80.726562 C 33.105469 80.753906 32.863281 80.847656 32.648438 81.007812 C 32.429688 81.171875 32.261719 81.390625 32.140625 81.664062 Z M 30.140625 86.226562 " fill-opacity="1" fill-rule="nonzero"/><path fill="#ffffff" d="M 23.917969 78.035156 L 25.195312 78.832031 C 25.117188 79.007812 25.105469 79.195312 25.167969 79.402344 C 25.226562 79.613281 25.371094 79.804688 25.601562 79.96875 C 25.808594 80.117188 26.015625 80.199219 26.21875 80.214844 C 26.417969 80.226562 26.570312 80.160156 26.671875 80.015625 C 26.753906 79.902344 26.78125 79.769531 26.753906 79.625 C 26.71875 79.480469 26.605469 79.304688 26.417969 79.097656 L 25.664062 78.300781 C 25.265625 77.875 25.023438 77.472656 24.945312 77.09375 C 24.871094 76.71875 24.953125 76.355469 25.203125 76.007812 C 25.433594 75.691406 25.726562 75.480469 26.078125 75.371094 C 26.433594 75.269531 26.820312 75.265625 27.238281 75.359375 C 27.65625 75.457031 28.074219 75.65625 28.488281 75.953125 C 29.128906 76.410156 29.542969 76.90625 29.730469 77.441406 C 29.914062 77.980469 29.875 78.496094 29.613281 78.996094 L 28.253906 78.132812 C 28.351562 77.90625 28.359375 77.691406 28.277344 77.480469 C 28.199219 77.273438 28.039062 77.082031 27.800781 76.910156 C 27.566406 76.746094 27.347656 76.65625 27.136719 76.644531 C 26.921875 76.632812 26.765625 76.695312 26.664062 76.839844 C 26.496094 77.074219 26.585938 77.382812 26.941406 77.761719 L 27.652344 78.527344 C 28.050781 78.957031 28.285156 79.367188 28.351562 79.761719 C 28.414062 80.15625 28.320312 80.53125 28.0625 80.890625 C 27.839844 81.199219 27.5625 81.40625 27.230469 81.507812 C 26.902344 81.609375 26.539062 81.613281 26.148438 81.515625 C 25.753906 81.417969 25.351562 81.222656 24.941406 80.925781 C 24.332031 80.492188 23.945312 80.023438 23.78125 79.515625 C 23.613281 79.011719 23.660156 78.515625 23.917969 78.035156 Z M 23.917969 78.035156 " fill-opacity="1" fill-rule="nonzero"/><path fill="#ffffff" d="M 19.710938 72.65625 L 18.496094 73.53125 L 19.9375 73.953125 L 19.578125 74.929688 L 18.210938 74.316406 L 18.5625 75.769531 L 17.523438 75.945312 L 17.375 74.453125 L 16.285156 75.484375 L 15.625 74.691406 L 16.839844 73.8125 L 15.398438 73.386719 L 15.769531 72.40625 L 17.132812 73.019531 L 16.785156 71.570312 L 17.808594 71.398438 L 17.960938 72.886719 L 19.050781 71.863281 Z M 19.710938 72.65625 " fill-opacity="1" fill-rule="nonzero"/><path fill="#ffffff" d="M 17.148438 61.6875 C 17.417969 62.332031 17.515625 62.96875 17.4375 63.601562 C 17.359375 64.234375 17.101562 64.816406 16.667969 65.347656 C 16.234375 65.875 15.625 66.304688 14.835938 66.636719 C 14.039062 66.96875 13.300781 67.105469 12.617188 67.042969 C 11.929688 66.976562 11.332031 66.75 10.828125 66.363281 C 10.316406 65.972656 9.929688 65.457031 9.660156 64.820312 C 9.480469 64.398438 9.375 63.980469 9.34375 63.570312 C 9.3125 63.160156 9.347656 62.769531 9.460938 62.398438 C 9.570312 62.023438 9.75 61.679688 10.003906 61.367188 C 10.257812 61.054688 10.582031 60.785156 10.984375 60.5625 L 11.636719 62.109375 C 11.453125 62.222656 11.296875 62.355469 11.171875 62.511719 C 11.050781 62.664062 10.960938 62.832031 10.910156 63.019531 C 10.855469 63.203125 10.835938 63.394531 10.855469 63.597656 C 10.867188 63.800781 10.917969 64.003906 11.003906 64.21875 C 11.160156 64.585938 11.394531 64.875 11.703125 65.078125 C 12.007812 65.28125 12.371094 65.382812 12.789062 65.390625 C 13.207031 65.398438 13.671875 65.292969 14.179688 65.078125 C 14.699219 64.863281 15.101562 64.601562 15.390625 64.296875 C 15.679688 63.992188 15.851562 63.664062 15.914062 63.308594 C 15.976562 62.957031 15.929688 62.59375 15.773438 62.226562 C 15.6875 62.023438 15.582031 61.84375 15.449219 61.691406 C 15.320312 61.539062 15.175781 61.417969 15.015625 61.324219 C 14.851562 61.230469 14.675781 61.171875 14.488281 61.140625 C 14.296875 61.113281 14.09375 61.121094 13.882812 61.171875 L 13.230469 59.621094 C 13.582031 59.519531 13.949219 59.484375 14.324219 59.511719 C 14.699219 59.539062 15.066406 59.636719 15.425781 59.804688 C 15.78125 59.972656 16.109375 60.210938 16.410156 60.523438 C 16.707031 60.832031 16.953125 61.222656 17.148438 61.6875 Z M 17.148438 61.6875 " fill-opacity="1" fill-rule="nonzero"/><path fill="#ffffff" d="M 15.15625 54.871094 C 15.261719 55.457031 15.226562 55.988281 15.050781 56.464844 C 14.875 56.9375 14.582031 57.328125 14.175781 57.640625 C 13.761719 57.949219 13.257812 58.160156 12.65625 58.265625 C 12.050781 58.375 11.503906 58.351562 11.011719 58.203125 C 10.519531 58.050781 10.105469 57.785156 9.78125 57.402344 C 9.449219 57.019531 9.230469 56.53125 9.125 55.945312 C 9.019531 55.355469 9.054688 54.824219 9.230469 54.351562 C 9.40625 53.878906 9.699219 53.484375 10.109375 53.175781 C 10.519531 52.863281 11.023438 52.652344 11.632812 52.542969 C 12.230469 52.4375 12.777344 52.460938 13.273438 52.613281 C 13.761719 52.761719 14.171875 53.027344 14.503906 53.414062 C 14.832031 53.796875 15.046875 54.28125 15.15625 54.871094 Z M 13.886719 55.085938 C 13.839844 54.820312 13.726562 54.609375 13.542969 54.453125 C 13.355469 54.300781 13.125 54.203125 12.84375 54.160156 C 12.5625 54.113281 12.25 54.121094 11.914062 54.179688 C 11.574219 54.242188 11.28125 54.34375 11.035156 54.484375 C 10.789062 54.621094 10.609375 54.792969 10.492188 55 C 10.375 55.207031 10.339844 55.441406 10.386719 55.710938 C 10.4375 55.980469 10.550781 56.195312 10.734375 56.351562 C 10.917969 56.503906 11.148438 56.605469 11.425781 56.652344 C 11.703125 56.695312 12.011719 56.6875 12.351562 56.628906 C 12.691406 56.566406 12.984375 56.46875 13.234375 56.332031 C 13.480469 56.191406 13.664062 56.015625 13.785156 55.808594 C 13.902344 55.597656 13.9375 55.355469 13.886719 55.085938 Z M 13.886719 55.085938 " fill-opacity="1" fill-rule="nonzero"/><path fill="#ffffff" d="M 11.070312 49.273438 L 14.5 49.335938 L 14.46875 50.96875 L 8.539062 50.863281 L 8.566406 49.257812 L 9.621094 49.277344 L 9.625 49.21875 C 9.273438 49.078125 9.003906 48.859375 8.808594 48.5625 C 8.609375 48.265625 8.515625 47.898438 8.523438 47.457031 C 8.53125 47.050781 8.628906 46.695312 8.8125 46.394531 C 9 46.089844 9.261719 45.859375 9.597656 45.695312 C 9.933594 45.53125 10.332031 45.453125 10.792969 45.460938 L 14.570312 45.53125 L 14.539062 47.164062 L 11.058594 47.101562 C 10.695312 47.09375 10.410156 47.183594 10.203125 47.367188 C 9.992188 47.550781 9.882812 47.804688 9.875 48.132812 C 9.871094 48.351562 9.917969 48.546875 10.015625 48.71875 C 10.105469 48.886719 10.242188 49.023438 10.421875 49.121094 C 10.601562 49.21875 10.816406 49.269531 11.070312 49.273438 Z M 11.070312 49.273438 " fill-opacity="1" fill-rule="nonzero"/><path fill="#ffffff" d="M 9.46875 40.449219 L 10.691406 40.664062 L 10.074219 44.167969 L 8.851562 43.953125 Z M 7.601562 42.914062 L 7.882812 41.304688 L 13.324219 42.253906 C 13.515625 42.289062 13.667969 42.269531 13.777344 42.199219 C 13.886719 42.128906 13.953125 41.996094 13.988281 41.804688 C 14 41.746094 14.007812 41.671875 14.007812 41.59375 C 14.011719 41.515625 14.011719 41.449219 14.007812 41.390625 L 15.265625 41.347656 C 15.285156 41.535156 15.292969 41.710938 15.289062 41.882812 C 15.285156 42.050781 15.269531 42.214844 15.242188 42.375 C 15.140625 42.953125 14.914062 43.375 14.570312 43.640625 C 14.222656 43.90625 13.785156 43.992188 13.253906 43.902344 Z M 7.601562 42.914062 " fill-opacity="1" fill-rule="nonzero"/><path fill="#ffffff" d="M 16.121094 39.042969 C 16.003906 39.398438 15.832031 39.695312 15.609375 39.9375 C 15.386719 40.175781 15.125 40.332031 14.824219 40.40625 C 14.519531 40.484375 14.183594 40.460938 13.816406 40.335938 C 13.5 40.230469 13.257812 40.082031 13.089844 39.898438 C 12.917969 39.714844 12.800781 39.503906 12.734375 39.261719 C 12.671875 39.019531 12.648438 38.761719 12.667969 38.488281 C 12.6875 38.21875 12.730469 37.933594 12.796875 37.644531 C 12.878906 37.3125 12.9375 37.042969 12.972656 36.835938 C 13.011719 36.628906 13.015625 36.46875 12.984375 36.359375 C 12.953125 36.242188 12.878906 36.164062 12.761719 36.125 L 12.734375 36.117188 C 12.503906 36.039062 12.300781 36.050781 12.121094 36.15625 C 11.945312 36.257812 11.8125 36.4375 11.722656 36.703125 C 11.628906 36.980469 11.617188 37.222656 11.683594 37.429688 C 11.746094 37.636719 11.863281 37.796875 12.035156 37.914062 L 11.429688 39.3125 C 11.113281 39.121094 10.867188 38.878906 10.691406 38.582031 C 10.511719 38.28125 10.414062 37.941406 10.394531 37.558594 C 10.375 37.171875 10.4375 36.753906 10.589844 36.308594 C 10.695312 35.996094 10.835938 35.714844 11.003906 35.453125 C 11.175781 35.195312 11.375 34.980469 11.605469 34.8125 C 11.832031 34.640625 12.085938 34.53125 12.375 34.480469 C 12.660156 34.433594 12.96875 34.464844 13.300781 34.578125 L 17.089844 35.855469 L 16.585938 37.335938 L 15.800781 37.070312 L 15.789062 37.109375 C 15.9375 37.257812 16.050781 37.433594 16.132812 37.628906 C 16.214844 37.824219 16.253906 38.039062 16.261719 38.273438 C 16.261719 38.507812 16.21875 38.765625 16.121094 39.042969 Z M 15.199219 38.234375 C 15.277344 38.007812 15.300781 37.792969 15.269531 37.585938 C 15.234375 37.378906 15.15625 37.199219 15.035156 37.050781 C 14.910156 36.898438 14.753906 36.789062 14.558594 36.722656 L 13.960938 36.519531 C 13.976562 36.578125 13.980469 36.652344 13.976562 36.75 C 13.976562 36.839844 13.96875 36.941406 13.953125 37.054688 C 13.9375 37.164062 13.921875 37.273438 13.902344 37.382812 C 13.878906 37.492188 13.863281 37.589844 13.847656 37.675781 C 13.8125 37.871094 13.800781 38.042969 13.8125 38.203125 C 13.824219 38.359375 13.867188 38.492188 13.941406 38.601562 C 14.011719 38.707031 14.125 38.785156 14.269531 38.835938 C 14.480469 38.90625 14.667969 38.886719 14.832031 38.769531 C 14.996094 38.652344 15.117188 38.472656 15.199219 38.234375 Z M 15.199219 38.234375 " fill-opacity="1" fill-rule="nonzero"/><path fill="#ffffff" d="M 19.007812 32.480469 C 18.707031 33.003906 18.339844 33.394531 17.902344 33.644531 C 17.460938 33.894531 16.984375 34.007812 16.46875 33.988281 C 15.953125 33.964844 15.433594 33.804688 14.910156 33.511719 C 14.382812 33.214844 13.972656 32.851562 13.6875 32.421875 C 13.402344 31.992188 13.253906 31.523438 13.246094 31.019531 C 13.234375 30.515625 13.375 30.003906 13.671875 29.480469 C 13.925781 29.03125 14.226562 28.6875 14.582031 28.445312 C 14.9375 28.199219 15.316406 28.058594 15.722656 28.03125 C 16.128906 28 16.539062 28.089844 16.949219 28.296875 L 16.191406 29.640625 C 16.003906 29.566406 15.824219 29.535156 15.648438 29.542969 C 15.472656 29.550781 15.3125 29.597656 15.167969 29.691406 C 15.023438 29.78125 14.898438 29.917969 14.800781 30.089844 C 14.675781 30.3125 14.625 30.539062 14.652344 30.773438 C 14.675781 31.003906 14.777344 31.226562 14.957031 31.449219 C 15.136719 31.667969 15.386719 31.867188 15.714844 32.050781 C 16.039062 32.234375 16.347656 32.347656 16.632812 32.390625 C 16.917969 32.429688 17.167969 32.402344 17.382812 32.308594 C 17.601562 32.210938 17.773438 32.054688 17.898438 31.832031 C 18.035156 31.585938 18.078125 31.335938 18.019531 31.082031 C 17.957031 30.824219 17.800781 30.597656 17.546875 30.402344 L 18.308594 29.058594 C 18.691406 29.300781 18.980469 29.605469 19.175781 29.964844 C 19.367188 30.324219 19.453125 30.71875 19.433594 31.148438 C 19.410156 31.574219 19.265625 32.019531 19.007812 32.480469 Z M 19.007812 32.480469 " fill-opacity="1" fill-rule="nonzero"/><path fill="#ffffff" d="M 18.042969 23.359375 L 19.019531 24.125 L 16.816406 26.925781 L 15.835938 26.160156 Z M 15.226562 24.65625 L 16.242188 23.371094 L 20.582031 26.765625 C 20.738281 26.886719 20.882812 26.941406 21.011719 26.933594 C 21.140625 26.917969 21.261719 26.835938 21.382812 26.683594 C 21.421875 26.632812 21.460938 26.574219 21.5 26.507812 C 21.542969 26.441406 21.574219 26.378906 21.597656 26.328125 L 22.726562 26.878906 C 22.65625 27.054688 22.578125 27.214844 22.492188 27.363281 C 22.410156 27.511719 22.320312 27.648438 22.21875 27.773438 C 21.851562 28.238281 21.457031 28.503906 21.027344 28.578125 C 20.59375 28.644531 20.164062 28.515625 19.742188 28.183594 Z M 15.226562 24.65625 " fill-opacity="1" fill-rule="nonzero"/><path fill="#ffffff" d="M 24.667969 14.84375 L 26.015625 13.855469 L 29.054688 17.976562 C 29.398438 18.4375 29.585938 18.925781 29.621094 19.4375 C 29.65625 19.945312 29.550781 20.441406 29.296875 20.925781 C 29.042969 21.410156 28.652344 21.84375 28.125 22.230469 C 27.597656 22.617188 27.0625 22.859375 26.523438 22.953125 C 25.984375 23.050781 25.480469 23.007812 25.003906 22.820312 C 24.527344 22.632812 24.117188 22.308594 23.773438 21.84375 L 20.734375 17.726562 L 22.078125 16.742188 L 25.035156 20.75 C 25.214844 20.992188 25.425781 21.167969 25.675781 21.277344 C 25.921875 21.386719 26.183594 21.425781 26.457031 21.390625 C 26.726562 21.351562 26.992188 21.238281 27.253906 21.050781 C 27.515625 20.855469 27.703125 20.636719 27.820312 20.390625 C 27.933594 20.140625 27.976562 19.882812 27.941406 19.617188 C 27.910156 19.347656 27.804688 19.09375 27.628906 18.851562 Z M 24.667969 14.84375 " fill-opacity="1" fill-rule="nonzero"/><path fill="#ffffff" d="M 34.898438 13.582031 L 33.566406 14.28125 C 33.453125 14.125 33.292969 14.023438 33.082031 13.96875 C 32.871094 13.914062 32.632812 13.945312 32.371094 14.0625 C 32.140625 14.167969 31.96875 14.304688 31.851562 14.472656 C 31.742188 14.636719 31.722656 14.800781 31.796875 14.960938 C 31.855469 15.089844 31.953125 15.179688 32.097656 15.226562 C 32.238281 15.269531 32.449219 15.261719 32.71875 15.199219 L 33.789062 14.953125 C 34.363281 14.820312 34.832031 14.816406 35.199219 14.9375 C 35.5625 15.058594 35.835938 15.3125 36.011719 15.703125 C 36.171875 16.058594 36.210938 16.417969 36.125 16.777344 C 36.039062 17.132812 35.851562 17.46875 35.558594 17.78125 C 35.261719 18.09375 34.882812 18.351562 34.414062 18.5625 C 33.699219 18.886719 33.058594 18.996094 32.5 18.886719 C 31.941406 18.777344 31.511719 18.484375 31.207031 18.007812 L 32.636719 17.269531 C 32.785156 17.464844 32.972656 17.582031 33.191406 17.617188 C 33.414062 17.652344 33.660156 17.609375 33.925781 17.488281 C 34.1875 17.371094 34.375 17.226562 34.492188 17.050781 C 34.609375 16.871094 34.632812 16.707031 34.558594 16.546875 C 34.4375 16.28125 34.125 16.207031 33.617188 16.324219 L 32.597656 16.550781 C 32.023438 16.679688 31.550781 16.675781 31.175781 16.535156 C 30.800781 16.394531 30.523438 16.121094 30.339844 15.722656 C 30.183594 15.375 30.140625 15.03125 30.21875 14.695312 C 30.296875 14.359375 30.472656 14.046875 30.753906 13.757812 C 31.039062 13.46875 31.410156 13.21875 31.871094 13.011719 C 32.554688 12.703125 33.15625 12.605469 33.679688 12.71875 C 34.203125 12.828125 34.609375 13.117188 34.898438 13.582031 Z M 34.898438 13.582031 " fill-opacity="1" fill-rule="nonzero"/><path fill="#ffffff" d="M 41.683594 12.660156 L 41.539062 11.171875 L 40.445312 12.199219 L 39.78125 11.398438 L 41.003906 10.53125 L 39.566406 10.101562 L 39.933594 9.121094 L 41.300781 9.742188 L 40.957031 8.285156 L 41.980469 8.117188 L 42.128906 9.605469 L 43.222656 8.578125 L 43.886719 9.390625 L 42.667969 10.257812 L 44.101562 10.683594 L 43.734375 11.65625 L 42.367188 11.035156 L 42.707031 12.492188 Z M 41.683594 12.660156 " fill-opacity="1" fill-rule="nonzero"/><g clip-path="url(#8ac6ef2725)"><path fill="#ffffff" d="M 48.777344 36.367188 C 42.226562 36.367188 36.917969 41.671875 36.917969 48.222656 C 36.917969 54.773438 42.226562 60.078125 48.777344 60.078125 C 55.328125 60.078125 60.632812 54.773438 60.632812 48.222656 C 60.632812 41.671875 55.328125 36.367188 48.777344 36.367188 Z M 48.777344 36.367188 " fill-opacity="1" fill-rule="nonzero"/></g><path fill="#d53f34" d="M 55.648438 42.222656 C 56.113281 42.6875 56.445312 43.152344 56.84375 43.550781 C 56.84375 43.683594 56.710938 43.75 56.644531 43.816406 C 55.117188 45.34375 53.65625 46.804688 52.195312 48.398438 L 52.859375 49.128906 C 52.527344 49.59375 52.128906 49.992188 51.664062 50.390625 L 50.867188 49.59375 L 49.671875 50.855469 C 49.671875 50.921875 49.738281 50.988281 49.804688 51.054688 C 50.800781 52.050781 51.796875 53.046875 52.792969 54.109375 L 51.53125 55.371094 L 50.867188 54.707031 C 50.402344 55.039062 50.003906 55.4375 49.671875 55.902344 C 49.804688 56.101562 54.253906 60.613281 54.71875 60.945312 C 55.183594 60.613281 55.648438 60.285156 56.046875 59.953125 C 56.046875 59.886719 56.046875 59.820312 55.980469 59.820312 C 55.117188 58.957031 54.320312 58.027344 53.390625 57.164062 C 53.125 57.429688 52.859375 57.695312 52.527344 57.894531 C 52.128906 57.5625 51.796875 57.03125 51.332031 56.699219 C 51.730469 56.234375 52.261719 55.835938 52.660156 55.371094 C 53.257812 54.773438 53.855469 54.175781 54.453125 53.511719 L 54.519531 53.445312 L 53.324219 52.25 L 52.660156 52.914062 L 51.398438 51.652344 C 52.460938 50.523438 53.589844 49.394531 54.652344 48.265625 C 55.648438 47.269531 56.644531 46.273438 57.640625 45.210938 C 57.707031 45.144531 57.707031 45.078125 57.773438 45.011719 L 58.769531 46.472656 C 57.441406 48 55.980469 49.261719 54.652344 50.789062 C 55.914062 52.117188 57.242188 53.445312 58.503906 54.773438 C 58.703125 55.039062 58.96875 55.304688 59.234375 55.503906 C 59.367188 55.171875 59.5 54.773438 59.566406 54.441406 C 59.695312 54.042969 59.761719 53.578125 59.761719 53.179688 C 59.761719 52.316406 59.761719 51.453125 59.761719 50.589844 L 57.507812 52.847656 C 57.042969 52.515625 56.644531 52.117188 56.3125 51.652344 C 56.910156 50.988281 57.574219 50.324219 58.171875 49.660156 C 58.636719 49.128906 59.167969 48.597656 59.695312 48.066406 L 59.695312 38.902344 C 57.574219 37.90625 55.382812 37.242188 53.058594 36.910156 C 52.726562 36.246094 52.261719 35.648438 51.929688 34.984375 C 51.929688 34.917969 51.996094 34.851562 52.0625 34.917969 C 52.394531 34.984375 52.660156 34.917969 52.925781 34.984375 C 53.125 35.050781 53.257812 35.050781 53.457031 35.050781 C 53.855469 35.117188 54.320312 35.183594 54.71875 35.316406 C 57.109375 35.78125 59.367188 36.578125 61.488281 37.707031 C 61.554688 42.554688 61.488281 47.46875 61.488281 52.382812 C 61.488281 52.914062 61.421875 53.378906 61.355469 53.910156 C 61.222656 54.839844 61.023438 55.769531 60.625 56.632812 C 59.300781 59.820312 56.511719 61.941406 53.722656 63.800781 C 51.996094 64.929688 50.203125 65.925781 48.410156 66.921875 C 46.949219 66.125 45.421875 65.261719 43.960938 64.332031 C 41.835938 63.070312 39.910156 61.542969 38.25 59.753906 C 40.375 57.695312 42.433594 55.570312 44.558594 53.445312 C 48.210938 49.59375 52.0625 46.007812 55.648438 42.222656 Z M 46.417969 56.5 C 47.015625 55.902344 47.613281 55.371094 48.144531 54.773438 C 48.410156 54.441406 48.675781 54.175781 49.007812 53.910156 C 49.207031 53.710938 49.40625 53.511719 49.605469 53.246094 L 48.476562 52.117188 L 47.28125 53.3125 C 47.414062 53.578125 47.679688 53.777344 47.878906 54.042969 C 47.546875 54.507812 47.148438 54.90625 46.683594 55.238281 C 46.417969 55.039062 46.285156 54.707031 46.019531 54.574219 C 45.554688 54.90625 45.15625 55.304688 44.757812 55.703125 C 45.820312 56.765625 46.882812 57.828125 47.878906 58.957031 C 47.878906 59.023438 47.8125 59.089844 47.8125 59.15625 L 46.617188 60.21875 C 46.351562 59.953125 46.152344 59.753906 45.886719 59.554688 C 45.289062 60.085938 44.890625 60.679688 44.292969 61.144531 C 44.027344 61.410156 43.828125 61.609375 43.5625 61.941406 C 44.09375 62.273438 44.558594 62.605469 45.023438 62.871094 L 49.339844 58.558594 C 49.40625 58.492188 49.472656 58.492188 49.472656 58.425781 L 49.472656 58.359375 L 48.277344 57.164062 L 47.546875 57.894531 Z M 43.429688 57.03125 L 40.773438 59.6875 C 41.171875 60.085938 41.570312 60.417969 42.035156 60.8125 C 42.300781 60.613281 44.292969 58.691406 44.625 58.226562 Z M 58.371094 57.230469 C 57.574219 56.300781 56.710938 55.4375 55.78125 54.574219 L 54.585938 55.769531 C 55.050781 56.234375 55.515625 56.632812 55.980469 57.097656 C 56.179688 57.296875 56.445312 57.5625 56.644531 57.828125 C 56.84375 58.09375 57.109375 58.292969 57.375 58.492188 C 57.707031 58.027344 58.039062 57.628906 58.371094 57.230469 Z M 53.191406 61.875 L 50.800781 59.554688 C 50.601562 59.753906 50.46875 59.886719 50.269531 60.152344 C 50.070312 60.351562 49.871094 60.550781 49.671875 60.8125 L 51.730469 62.871094 C 52.195312 62.472656 52.726562 62.207031 53.191406 61.875 Z M 48.476562 61.941406 L 46.683594 63.667969 C 46.949219 63.867188 47.214844 64.066406 47.546875 64.199219 C 47.8125 64.398438 48.144531 64.53125 48.476562 64.664062 C 49.007812 64.332031 49.605469 64.066406 50.070312 63.734375 C 49.605469 63.003906 48.941406 62.539062 48.476562 61.941406 Z M 48.476562 61.941406 " fill-opacity="1" fill-rule="nonzero"/><path fill="#000000" d="M 38.25 57.628906 C 37.984375 57.363281 37.785156 57.097656 37.652344 56.765625 C 36.988281 55.636719 36.589844 54.441406 36.457031 53.179688 C 36.257812 51.519531 36.523438 49.792969 37.121094 48.199219 C 37.785156 46.605469 38.648438 45.144531 39.777344 43.816406 C 40.042969 43.484375 40.375 43.152344 40.640625 42.753906 C 41.105469 42.222656 41.636719 41.691406 42.101562 41.160156 C 43.164062 39.964844 44.160156 38.769531 45.089844 37.507812 C 45.886719 36.378906 46.683594 35.183594 47.347656 33.992188 C 47.878906 32.996094 48.34375 32 48.675781 30.9375 C 48.742188 30.804688 48.675781 30.671875 48.742188 30.605469 L 48.808594 30.539062 C 49.472656 33.328125 50.734375 35.914062 52.460938 38.105469 C 52.925781 38.703125 53.390625 39.367188 53.855469 39.898438 C 54.121094 40.230469 54.386719 40.5625 54.71875 40.828125 C 53.855469 41.625 53.058594 42.421875 52.261719 43.21875 C 50.402344 45.210938 48.410156 47.070312 46.550781 48.996094 C 44.359375 51.253906 42.101562 53.445312 39.910156 55.703125 C 39.710938 55.96875 39.445312 56.167969 39.179688 56.367188 C 38.914062 56.898438 38.648438 57.230469 38.25 57.628906 Z M 45.753906 39.765625 C 45.820312 39.765625 45.820312 39.699219 45.820312 39.632812 C 45.820312 39.566406 45.753906 39.699219 45.753906 39.765625 C 45.753906 39.832031 45.6875 39.765625 45.6875 39.832031 C 45.554688 39.898438 45.488281 39.964844 45.421875 40.097656 C 45.15625 40.429688 44.824219 40.695312 44.558594 41.027344 C 43.960938 41.757812 43.296875 42.421875 42.699219 43.21875 C 41.769531 44.347656 40.90625 45.542969 40.175781 46.804688 C 39.445312 48 39.046875 49.394531 38.980469 50.789062 C 38.980469 51.054688 38.980469 51.253906 38.980469 51.519531 C 38.980469 51.851562 39.046875 52.183594 39.246094 52.515625 C 39.3125 52.648438 39.378906 52.78125 39.511719 52.847656 C 39.84375 53.113281 40.308594 53.113281 40.640625 52.78125 C 40.574219 52.714844 40.640625 52.648438 40.640625 52.582031 C 40.839844 52.117188 40.972656 51.652344 40.972656 51.121094 C 41.039062 50.324219 41.171875 49.59375 41.304688 48.796875 C 41.96875 46.273438 43.03125 43.882812 44.425781 41.691406 C 44.824219 41.09375 45.222656 40.496094 45.621094 39.898438 C 45.621094 39.832031 45.6875 39.832031 45.621094 39.765625 C 45.6875 39.765625 45.6875 39.765625 45.753906 39.765625 Z M 45.753906 39.765625 " fill-opacity="1" fill-rule="nonzero"/><path fill="#d53f34" d="M 35.261719 50.855469 C 35.0625 50.789062 35.0625 50.65625 35.128906 50.589844 C 35.195312 50.457031 35.195312 50.324219 35.195312 50.191406 C 35.195312 49.195312 35.261719 48.265625 35.195312 47.335938 C 35.0625 44.28125 35.195312 41.160156 35.128906 38.105469 C 35.128906 37.90625 35.128906 37.773438 35.261719 37.640625 C 38.382812 36.046875 41.769531 35.117188 45.222656 34.851562 L 43.894531 36.84375 C 41.503906 37.175781 39.179688 37.839844 36.988281 38.835938 C 36.921875 38.96875 36.921875 39.101562 36.921875 39.234375 C 36.921875 41.160156 36.921875 43.085938 36.921875 45.011719 C 36.921875 45.410156 36.855469 45.808594 36.589844 46.074219 C 36.257812 46.671875 35.925781 47.335938 35.726562 48 C 35.527344 48.664062 35.328125 49.261719 35.195312 49.925781 C 35.261719 50.257812 35.261719 50.589844 35.261719 50.855469 Z M 35.261719 50.855469 " fill-opacity="1" fill-rule="nonzero"/></svg>