<svg xmlns="http://www.w3.org/2000/svg" xmlns:xlink="http://www.w3.org/1999/xlink" version="1.1" id="Capa_1" x="0px" y="0px" viewBox="0 0 512.002 512.002" style="enable-background:new 0 0 512.002 512.002;" xml:space="preserve" width="300" height="300" xmlns:svgjs="http://svgjs.dev/svgjs"><g width="100%" height="100%" transform="matrix(1,0,0,1,0,0)"><g>
	
		<polygon style="fill-rule: evenodd; clip-rule: evenodd; stroke-linecap: round; stroke-linejoin: round; stroke-miterlimit: 22.9256;" points="&#10;&#9;&#9;256.001,10 275.564,47.738 317.501,54.683 287.655,84.95 294.01,126.98 256.001,107.949 217.992,126.98 224.346,84.95 &#10;&#9;&#9;194.501,54.683 236.437,47.738 &#9;" fill="none" fill-opacity="1" stroke="#ffffff" stroke-opacity="1" data-original-stroke-color="#000000ff" stroke-width="25" data-original-stroke-width="20"/>
	
		<polygon style="fill-rule: evenodd; clip-rule: evenodd; stroke-linecap: round; stroke-linejoin: round; stroke-miterlimit: 22.9256;" points="&#10;&#9;&#9;77.501,127.298 97.064,165.036 139.001,171.981 109.155,202.249 115.51,244.279 77.501,225.247 39.492,244.279 45.846,202.249 &#10;&#9;&#9;16.001,171.981 57.937,165.036 &#9;" fill="none" fill-opacity="1" stroke="#ffffff" stroke-opacity="1" data-original-stroke-color="#000000ff" stroke-width="25" data-original-stroke-width="20"/>
	
		<polygon style="fill-rule: evenodd; clip-rule: evenodd; stroke-linecap: round; stroke-linejoin: round; stroke-miterlimit: 22.9256;" points="&#10;&#9;&#9;434.501,127.298 414.937,165.036 373.001,171.981 402.846,202.249 396.492,244.279 434.501,225.247 472.51,244.279 &#10;&#9;&#9;466.155,202.249 496.001,171.981 454.064,165.036 &#9;" fill="none" fill-opacity="1" stroke="#ffffff" stroke-opacity="1" data-original-stroke-color="#000000ff" stroke-width="25" data-original-stroke-width="20"/>
	
		<path style="fill-rule: evenodd; clip-rule: evenodd; stroke-linecap: round; stroke-linejoin: round; stroke-miterlimit: 22.9256;" d="&#10;&#9;&#9;M256.033,336.717c75.751,0,137.729,61.977,137.729,137.728v27.556H118.304v-27.556&#10;&#9;&#9;C118.304,398.694,180.281,336.717,256.033,336.717z" fill="none" fill-opacity="1" stroke="#ffffff" stroke-opacity="1" data-original-stroke-color="#000000ff" stroke-width="25" data-original-stroke-width="20"/>
	
		<polyline style="fill-rule: evenodd; clip-rule: evenodd; stroke-linecap: round; stroke-linejoin: round; stroke-miterlimit: 22.9256;" points="&#10;&#9;&#9;313.24,349.289 256.033,406.496 199.07,349.533 &#9;" fill="none" fill-opacity="1" stroke="#ffffff" stroke-opacity="1" data-original-stroke-color="#000000ff" stroke-width="25" data-original-stroke-width="20"/>
	
		<line style="fill-rule: evenodd; clip-rule: evenodd; stroke-linecap: round; stroke-linejoin: round; stroke-miterlimit: 22.9256;" x1="256.033" y1="407.895" x2="256.033" y2="500.223" fill="none" fill-opacity="1" stroke="#ffffff" stroke-opacity="1" data-original-stroke-color="#000000ff" stroke-width="25" data-original-stroke-width="20"/>
	
		<line style="fill-rule: evenodd; clip-rule: evenodd; stroke-linecap: round; stroke-linejoin: round; stroke-miterlimit: 22.9256;" x1="306.032" y1="427.207" x2="330.828" y2="427.207" fill="none" fill-opacity="1" stroke="#ffffff" stroke-opacity="1" data-original-stroke-color="#000000ff" stroke-width="25" data-original-stroke-width="20"/>
	
		<ellipse transform="matrix(0.9871 -0.1602 0.1602 0.9871 -38.2286 44.3603)" style="fill-rule: evenodd; clip-rule: evenodd; stroke-linecap: round; stroke-linejoin: round; stroke-miterlimit: 22.9256;" cx="256.033" cy="259.295" rx="77.423" ry="77.423" fill="none" fill-opacity="1" stroke="#ffffff" stroke-opacity="1" data-original-stroke-color="#000000ff" stroke-width="25" data-original-stroke-width="20"/>
</g></g></svg>