<svg xmlns="http://www.w3.org/2000/svg" xmlns:xlink="http://www.w3.org/1999/xlink" version="1.1" id="Capa_1" x="0px" y="0px" viewBox="0 0 512 512" style="enable-background:new 0 0 512 512;" xml:space="preserve" width="300" height="300" xmlns:svgjs="http://svgjs.dev/svgjs"><g width="100%" height="100%" transform="matrix(1,0,0,1,0,0)"><g>
	<g>
		<path style="stroke-linecap: round; stroke-linejoin: round; stroke-miterlimit: 10;" d="&#10;&#9;&#9;&#9;M76.845,44.691c3.153-0.653,6.42-0.997,9.767-0.997c12.464,0,23.812,4.765,32.323,12.566c6.06-5.126,13.896-8.223,22.461-8.223&#10;&#9;&#9;&#9;c8.018,0,15.4,2.71,21.281,7.261" fill="none" fill-opacity="1" stroke="#ffffff" stroke-opacity="1" data-original-stroke-color="#000000ff" stroke-width="25" data-original-stroke-width="15"/>
		<path style="stroke-linecap: round; stroke-linejoin: round; stroke-miterlimit: 10;" d="&#10;&#9;&#9;&#9;M66.957,169.982H42.709c-19.446,0-35.209-15.738-35.209-35.152c0-18.35,14.085-33.408,32.049-35.004&#10;&#9;&#9;&#9;c-0.485-2.727-0.752-5.528-0.752-8.394c0-10.373,3.314-19.973,8.942-27.803" fill="none" fill-opacity="1" stroke="#ffffff" stroke-opacity="1" data-original-stroke-color="#000000ff" stroke-width="25" data-original-stroke-width="15"/>
		<path style="stroke-linecap: round; stroke-linejoin: round; stroke-miterlimit: 10;" d="&#10;&#9;&#9;&#9;M225.213,239.868h33.078c18.851,0,34.242-14.79,35.165-33.382" fill="none" fill-opacity="1" stroke="#ffffff" stroke-opacity="1" data-original-stroke-color="#000000ff" stroke-width="25" data-original-stroke-width="15"/>
		<path style="stroke-linecap: round; stroke-linejoin: round; stroke-miterlimit: 10;" d="&#10;&#9;&#9;&#9;M99.52,135.853c-15.987,5.152-28.291,18.485-31.974,35.056C51.067,173.638,38.5,187.925,38.5,205.15&#10;&#9;&#9;&#9;c0,19.174,15.569,34.718,34.775,34.718h87.64" fill="none" fill-opacity="1" stroke="#ffffff" stroke-opacity="1" data-original-stroke-color="#000000ff" stroke-width="25" data-original-stroke-width="15"/>
		
			<line style="stroke-linecap: round; stroke-linejoin: round; stroke-miterlimit: 10;" x1="155.172" y1="269.755" x2="167.734" y2="206.398" fill="none" fill-opacity="1" stroke="#ffffff" stroke-opacity="1" data-original-stroke-color="#000000ff" stroke-width="25" data-original-stroke-width="15"/>
		
			<polyline style="stroke-linecap: round; stroke-linejoin: round; stroke-miterlimit: 10;" points="&#10;&#9;&#9;&#9;236.553,206.389 202,305.933 232.011,305.933 151,458.5 178,341.226 141,341.226 148.363,304.094 &#9;&#9;" fill="none" fill-opacity="1" stroke="#ffffff" stroke-opacity="1" data-original-stroke-color="#000000ff" stroke-width="25" data-original-stroke-width="15"/>
		<g>
			<path style="stroke-linecap: round; stroke-linejoin: round; stroke-miterlimit: 10;" d="&#10;&#9;&#9;&#9;&#9;M341.181,21.805c-1.402-0.091-2.817-0.137-4.242-0.137c-6.175,0-12.14,0.883-17.794,2.499&#10;&#9;&#9;&#9;&#9;C311.617,14.054,299.558,7.5,285.962,7.5c-10.14,0-19.421,3.651-26.61,9.699c-4.724-1.098-9.64-1.698-14.699-1.698&#10;&#9;&#9;&#9;&#9;c-24.335,0-45.517,13.441-56.515,33.283c-0.786-0.044-1.576-0.072-2.372-0.072c-19.404,0-35.676,13.351-40.109,31.345&#10;&#9;&#9;&#9;&#9;C118.971,87.958,99.5,112.596,99.5,141.783c0,35.563,28.898,64.393,64.545,64.393h160.38" fill="none" fill-opacity="1" stroke="#ffffff" stroke-opacity="1" data-original-stroke-color="#000000ff" stroke-width="25" data-original-stroke-width="15"/>
			<path style="stroke-linecap: round; stroke-linejoin: round; stroke-miterlimit: 10;" d="&#10;&#9;&#9;&#9;&#9;M491.206,180.932c8.339-10.849,13.294-24.421,13.294-39.149c0-34.919-27.865-63.326-62.619-64.345&#10;&#9;&#9;&#9;&#9;c-3.974-18.62-20.547-32.589-40.396-32.589c-4.628,0-9.073,0.771-13.227,2.171c-4.095-5.349-9.009-10.039-14.556-13.884" fill="none" fill-opacity="1" stroke="#ffffff" stroke-opacity="1" data-original-stroke-color="#000000ff" stroke-width="25" data-original-stroke-width="15"/>
			<path style="stroke-linecap: round; stroke-linejoin: round; stroke-miterlimit: 10;" d="&#10;&#9;&#9;&#9;&#9;M379.319,206.177h60.636c8.31,0,16.254-1.567,23.55-4.421" fill="none" fill-opacity="1" stroke="#ffffff" stroke-opacity="1" data-original-stroke-color="#000000ff" stroke-width="25" data-original-stroke-width="15"/>
			<path style="stroke-linecap: round; stroke-linejoin: round; stroke-miterlimit: 10;" d="&#10;&#9;&#9;&#9;&#9;M180.108,79.894c0-11.275,2.927-21.893,8.03-31.11" fill="none" fill-opacity="1" stroke="#ffffff" stroke-opacity="1" data-original-stroke-color="#000000ff" stroke-width="25" data-original-stroke-width="15"/>
			<path style="stroke-linecap: round; stroke-linejoin: round; stroke-miterlimit: 10;" d="&#10;&#9;&#9;&#9;&#9;M384.045,109.587c11.16-19.247,32.019-32.196,55.91-32.196c0.634,0,1.296,0.03,1.926,0.049" fill="none" fill-opacity="1" stroke="#ffffff" stroke-opacity="1" data-original-stroke-color="#000000ff" stroke-width="25" data-original-stroke-width="15"/>
			<path style="stroke-linecap: round; stroke-linejoin: round; stroke-miterlimit: 10;" d="&#10;&#9;&#9;&#9;&#9;M388.257,47.02c8.811,11.686,13.211,27.091,13.211,42.277" fill="none" fill-opacity="1" stroke="#ffffff" stroke-opacity="1" data-original-stroke-color="#000000ff" stroke-width="25" data-original-stroke-width="15"/>
			<path style="stroke-linecap: round; stroke-linejoin: round; stroke-miterlimit: 10;" d="&#10;&#9;&#9;&#9;&#9;M282.882,50.861c8.37-12.768,21.219-22.385,36.263-26.695" fill="none" fill-opacity="1" stroke="#ffffff" stroke-opacity="1" data-original-stroke-color="#000000ff" stroke-width="25" data-original-stroke-width="15"/>
			<path style="stroke-linecap: round; stroke-linejoin: round; stroke-miterlimit: 10;" d="&#10;&#9;&#9;&#9;&#9;M160.586,164.39c1.487-12.576,7.597-24.634,18.088-33.416c21.846-18.288,54.416-15.445,72.747,6.35" fill="none" fill-opacity="1" stroke="#ffffff" stroke-opacity="1" data-original-stroke-color="#000000ff" stroke-width="25" data-original-stroke-width="15"/>
			<path style="stroke-linecap: round; stroke-linejoin: round; stroke-miterlimit: 10;" d="&#10;&#9;&#9;&#9;&#9;M233.985,123.659c13.748-16.346,38.175-18.478,54.56-4.762" fill="none" fill-opacity="1" stroke="#ffffff" stroke-opacity="1" data-original-stroke-color="#000000ff" stroke-width="25" data-original-stroke-width="15"/>
		</g>
		
			<polygon style="stroke-linecap: round; stroke-linejoin: round; stroke-miterlimit: 10;" points="&#10;&#9;&#9;&#9;337.349,142.371 401,142.371 365.9,243.492 392.91,243.492 320,380.802 344.3,275.255 311,275.255 &#9;&#9;" fill="none" fill-opacity="1" stroke="#ffffff" stroke-opacity="1" data-original-stroke-color="#000000ff" stroke-width="25" data-original-stroke-width="15"/>
	</g>
	<g>
		<g>
			
				<line style="stroke-linecap: round; stroke-linejoin: round; stroke-miterlimit: 10;" x1="436" y1="294.5" x2="436" y2="324.5" fill="none" fill-opacity="1" stroke="#ffffff" stroke-opacity="1" data-original-stroke-color="#000000ff" stroke-width="25" data-original-stroke-width="15"/>
		</g>
		
			<line style="stroke-linecap: round; stroke-linejoin: round; stroke-miterlimit: 10;" x1="436" y1="474.5" x2="436" y2="504.5" fill="none" fill-opacity="1" stroke="#ffffff" stroke-opacity="1" data-original-stroke-color="#000000ff" stroke-width="25" data-original-stroke-width="15"/>
		
			<line style="stroke-linecap: round; stroke-linejoin: round; stroke-miterlimit: 10;" x1="436" y1="384.5" x2="436" y2="414.5" fill="none" fill-opacity="1" stroke="#ffffff" stroke-opacity="1" data-original-stroke-color="#000000ff" stroke-width="25" data-original-stroke-width="15"/>
		<g>
			
				<line style="stroke-linecap: round; stroke-linejoin: round; stroke-miterlimit: 10;" x1="476" y1="324.5" x2="476" y2="354.5" fill="none" fill-opacity="1" stroke="#ffffff" stroke-opacity="1" data-original-stroke-color="#000000ff" stroke-width="25" data-original-stroke-width="15"/>
		</g>
		
			<line style="stroke-linecap: round; stroke-linejoin: round; stroke-miterlimit: 10;" x1="476" y1="414.5" x2="476" y2="444.5" fill="none" fill-opacity="1" stroke="#ffffff" stroke-opacity="1" data-original-stroke-color="#000000ff" stroke-width="25" data-original-stroke-width="15"/>
		<g>
			
				<line style="stroke-linecap: round; stroke-linejoin: round; stroke-miterlimit: 10;" x1="396" y1="324.5" x2="396" y2="354.5" fill="none" fill-opacity="1" stroke="#ffffff" stroke-opacity="1" data-original-stroke-color="#000000ff" stroke-width="25" data-original-stroke-width="15"/>
		</g>
		
			<line style="stroke-linecap: round; stroke-linejoin: round; stroke-miterlimit: 10;" x1="396" y1="414.5" x2="396" y2="444.5" fill="none" fill-opacity="1" stroke="#ffffff" stroke-opacity="1" data-original-stroke-color="#000000ff" stroke-width="25" data-original-stroke-width="15"/>
		
			<line style="stroke-linecap: round; stroke-linejoin: round; stroke-miterlimit: 10;" x1="356" y1="474.5" x2="356" y2="504.5" fill="none" fill-opacity="1" stroke="#ffffff" stroke-opacity="1" data-original-stroke-color="#000000ff" stroke-width="25" data-original-stroke-width="15"/>
		
			<line style="stroke-linecap: round; stroke-linejoin: round; stroke-miterlimit: 10;" x1="356" y1="384.5" x2="356" y2="414.5" fill="none" fill-opacity="1" stroke="#ffffff" stroke-opacity="1" data-original-stroke-color="#000000ff" stroke-width="25" data-original-stroke-width="15"/>
		
			<line style="stroke-linecap: round; stroke-linejoin: round; stroke-miterlimit: 10;" x1="316" y1="414.5" x2="316" y2="444.5" fill="none" fill-opacity="1" stroke="#ffffff" stroke-opacity="1" data-original-stroke-color="#000000ff" stroke-width="25" data-original-stroke-width="15"/>
		<g>
			
				<line style="stroke-linecap: round; stroke-linejoin: round; stroke-miterlimit: 10;" x1="276" y1="294.5" x2="276" y2="324.5" fill="none" fill-opacity="1" stroke="#ffffff" stroke-opacity="1" data-original-stroke-color="#000000ff" stroke-width="25" data-original-stroke-width="15"/>
		</g>
		
			<line style="stroke-linecap: round; stroke-linejoin: round; stroke-miterlimit: 10;" x1="276" y1="474.5" x2="276" y2="504.5" fill="none" fill-opacity="1" stroke="#ffffff" stroke-opacity="1" data-original-stroke-color="#000000ff" stroke-width="25" data-original-stroke-width="15"/>
		
			<line style="stroke-linecap: round; stroke-linejoin: round; stroke-miterlimit: 10;" x1="276" y1="384.5" x2="276" y2="414.5" fill="none" fill-opacity="1" stroke="#ffffff" stroke-opacity="1" data-original-stroke-color="#000000ff" stroke-width="25" data-original-stroke-width="15"/>
		
			<line style="stroke-linecap: round; stroke-linejoin: round; stroke-miterlimit: 10;" x1="236" y1="414.5" x2="236" y2="444.5" fill="none" fill-opacity="1" stroke="#ffffff" stroke-opacity="1" data-original-stroke-color="#000000ff" stroke-width="25" data-original-stroke-width="15"/>
		
			<line style="stroke-linecap: round; stroke-linejoin: round; stroke-miterlimit: 10;" x1="196" y1="474.5" x2="196" y2="504.5" fill="none" fill-opacity="1" stroke="#ffffff" stroke-opacity="1" data-original-stroke-color="#000000ff" stroke-width="25" data-original-stroke-width="15"/>
		<g>
			
				<line style="stroke-linecap: round; stroke-linejoin: round; stroke-miterlimit: 10;" x1="116" y1="294.5" x2="116" y2="324.5" fill="none" fill-opacity="1" stroke="#ffffff" stroke-opacity="1" data-original-stroke-color="#000000ff" stroke-width="25" data-original-stroke-width="15"/>
		</g>
		
			<line style="stroke-linecap: round; stroke-linejoin: round; stroke-miterlimit: 10;" x1="116" y1="474.5" x2="116" y2="504.5" fill="none" fill-opacity="1" stroke="#ffffff" stroke-opacity="1" data-original-stroke-color="#000000ff" stroke-width="25" data-original-stroke-width="15"/>
		
			<line style="stroke-linecap: round; stroke-linejoin: round; stroke-miterlimit: 10;" x1="116" y1="384.5" x2="116" y2="414.5" fill="none" fill-opacity="1" stroke="#ffffff" stroke-opacity="1" data-original-stroke-color="#000000ff" stroke-width="25" data-original-stroke-width="15"/>
		<g>
			
				<line style="stroke-linecap: round; stroke-linejoin: round; stroke-miterlimit: 10;" x1="76" y1="324.5" x2="76" y2="354.5" fill="none" fill-opacity="1" stroke="#ffffff" stroke-opacity="1" data-original-stroke-color="#000000ff" stroke-width="25" data-original-stroke-width="15"/>
		</g>
		
			<line style="stroke-linecap: round; stroke-linejoin: round; stroke-miterlimit: 10;" x1="76" y1="414.5" x2="76" y2="444.5" fill="none" fill-opacity="1" stroke="#ffffff" stroke-opacity="1" data-original-stroke-color="#000000ff" stroke-width="25" data-original-stroke-width="15"/>
		<g>
			
				<line style="stroke-linecap: round; stroke-linejoin: round; stroke-miterlimit: 10;" x1="36" y1="294.5" x2="36" y2="324.5" fill="none" fill-opacity="1" stroke="#ffffff" stroke-opacity="1" data-original-stroke-color="#000000ff" stroke-width="25" data-original-stroke-width="15"/>
		</g>
		
			<line style="stroke-linecap: round; stroke-linejoin: round; stroke-miterlimit: 10;" x1="36" y1="474.5" x2="36" y2="504.5" fill="none" fill-opacity="1" stroke="#ffffff" stroke-opacity="1" data-original-stroke-color="#000000ff" stroke-width="25" data-original-stroke-width="15"/>
		
			<line style="stroke-linecap: round; stroke-linejoin: round; stroke-miterlimit: 10;" x1="36" y1="384.5" x2="36" y2="414.5" fill="none" fill-opacity="1" stroke="#ffffff" stroke-opacity="1" data-original-stroke-color="#000000ff" stroke-width="25" data-original-stroke-width="15"/>
	</g>
	<g>
		
			<line style="stroke-linecap: round; stroke-linejoin: round; stroke-miterlimit: 10;" x1="36" y1="354.5" x2="36" y2="354.5" fill="none" fill-opacity="1" stroke="#ffffff" stroke-opacity="1" data-original-stroke-color="#000000ff" stroke-width="25" data-original-stroke-width="15"/>
		
			<line style="stroke-linecap: round; stroke-linejoin: round; stroke-miterlimit: 10;" x1="36" y1="264.5" x2="36" y2="264.5" fill="none" fill-opacity="1" stroke="#ffffff" stroke-opacity="1" data-original-stroke-color="#000000ff" stroke-width="25" data-original-stroke-width="15"/>
		
			<line style="stroke-linecap: round; stroke-linejoin: round; stroke-miterlimit: 10;" x1="36" y1="444.5" x2="36" y2="444.5" fill="none" fill-opacity="1" stroke="#ffffff" stroke-opacity="1" data-original-stroke-color="#000000ff" stroke-width="25" data-original-stroke-width="15"/>
		
			<line style="stroke-linecap: round; stroke-linejoin: round; stroke-miterlimit: 10;" x1="76" y1="384.5" x2="76" y2="384.5" fill="none" fill-opacity="1" stroke="#ffffff" stroke-opacity="1" data-original-stroke-color="#000000ff" stroke-width="25" data-original-stroke-width="15"/>
		
			<line style="stroke-linecap: round; stroke-linejoin: round; stroke-miterlimit: 10;" x1="76" y1="294.5" x2="76" y2="294.5" fill="none" fill-opacity="1" stroke="#ffffff" stroke-opacity="1" data-original-stroke-color="#000000ff" stroke-width="25" data-original-stroke-width="15"/>
		
			<line style="stroke-linecap: round; stroke-linejoin: round; stroke-miterlimit: 10;" x1="76" y1="474.5" x2="76" y2="474.5" fill="none" fill-opacity="1" stroke="#ffffff" stroke-opacity="1" data-original-stroke-color="#000000ff" stroke-width="25" data-original-stroke-width="15"/>
		
			<line style="stroke-linecap: round; stroke-linejoin: round; stroke-miterlimit: 10;" x1="116" y1="354.5" x2="116" y2="354.5" fill="none" fill-opacity="1" stroke="#ffffff" stroke-opacity="1" data-original-stroke-color="#000000ff" stroke-width="25" data-original-stroke-width="15"/>
		
			<line style="stroke-linecap: round; stroke-linejoin: round; stroke-miterlimit: 10;" x1="116" y1="264.5" x2="116" y2="264.5" fill="none" fill-opacity="1" stroke="#ffffff" stroke-opacity="1" data-original-stroke-color="#000000ff" stroke-width="25" data-original-stroke-width="15"/>
		
			<line style="stroke-linecap: round; stroke-linejoin: round; stroke-miterlimit: 10;" x1="276" y1="264.5" x2="276" y2="264.5" fill="none" fill-opacity="1" stroke="#ffffff" stroke-opacity="1" data-original-stroke-color="#000000ff" stroke-width="25" data-original-stroke-width="15"/>
		
			<line style="stroke-linecap: round; stroke-linejoin: round; stroke-miterlimit: 10;" x1="116" y1="444.5" x2="116" y2="444.5" fill="none" fill-opacity="1" stroke="#ffffff" stroke-opacity="1" data-original-stroke-color="#000000ff" stroke-width="25" data-original-stroke-width="15"/>
		
			<line style="stroke-linecap: round; stroke-linejoin: round; stroke-miterlimit: 10;" x1="196" y1="444.5" x2="196" y2="444.5" fill="none" fill-opacity="1" stroke="#ffffff" stroke-opacity="1" data-original-stroke-color="#000000ff" stroke-width="25" data-original-stroke-width="15"/>
		
			<line style="stroke-linecap: round; stroke-linejoin: round; stroke-miterlimit: 10;" x1="236" y1="474.5" x2="236" y2="474.5" fill="none" fill-opacity="1" stroke="#ffffff" stroke-opacity="1" data-original-stroke-color="#000000ff" stroke-width="25" data-original-stroke-width="15"/>
		
			<line style="stroke-linecap: round; stroke-linejoin: round; stroke-miterlimit: 10;" x1="276" y1="444.5" x2="276" y2="444.5" fill="none" fill-opacity="1" stroke="#ffffff" stroke-opacity="1" data-original-stroke-color="#000000ff" stroke-width="25" data-original-stroke-width="15"/>
		
			<line style="stroke-linecap: round; stroke-linejoin: round; stroke-miterlimit: 10;" x1="236" y1="384.5" x2="236" y2="384.5" fill="none" fill-opacity="1" stroke="#ffffff" stroke-opacity="1" data-original-stroke-color="#000000ff" stroke-width="25" data-original-stroke-width="15"/>
		
			<line style="stroke-linecap: round; stroke-linejoin: round; stroke-miterlimit: 10;" x1="276" y1="354.5" x2="276" y2="354.5" fill="none" fill-opacity="1" stroke="#ffffff" stroke-opacity="1" data-original-stroke-color="#000000ff" stroke-width="25" data-original-stroke-width="15"/>
		
			<line style="stroke-linecap: round; stroke-linejoin: round; stroke-miterlimit: 10;" x1="316" y1="474.5" x2="316" y2="474.5" fill="none" fill-opacity="1" stroke="#ffffff" stroke-opacity="1" data-original-stroke-color="#000000ff" stroke-width="25" data-original-stroke-width="15"/>
		
			<line style="stroke-linecap: round; stroke-linejoin: round; stroke-miterlimit: 10;" x1="356" y1="444.5" x2="356" y2="444.5" fill="none" fill-opacity="1" stroke="#ffffff" stroke-opacity="1" data-original-stroke-color="#000000ff" stroke-width="25" data-original-stroke-width="15"/>
		
			<line style="stroke-linecap: round; stroke-linejoin: round; stroke-miterlimit: 10;" x1="396" y1="474.5" x2="396" y2="474.5" fill="none" fill-opacity="1" stroke="#ffffff" stroke-opacity="1" data-original-stroke-color="#000000ff" stroke-width="25" data-original-stroke-width="15"/>
		
			<line style="stroke-linecap: round; stroke-linejoin: round; stroke-miterlimit: 10;" x1="436" y1="444.5" x2="436" y2="444.5" fill="none" fill-opacity="1" stroke="#ffffff" stroke-opacity="1" data-original-stroke-color="#000000ff" stroke-width="25" data-original-stroke-width="15"/>
		
			<line style="stroke-linecap: round; stroke-linejoin: round; stroke-miterlimit: 10;" x1="396" y1="384.5" x2="396" y2="384.5" fill="none" fill-opacity="1" stroke="#ffffff" stroke-opacity="1" data-original-stroke-color="#000000ff" stroke-width="25" data-original-stroke-width="15"/>
		
			<line style="stroke-linecap: round; stroke-linejoin: round; stroke-miterlimit: 10;" x1="476" y1="474.5" x2="476" y2="474.5" fill="none" fill-opacity="1" stroke="#ffffff" stroke-opacity="1" data-original-stroke-color="#000000ff" stroke-width="25" data-original-stroke-width="15"/>
		
			<line style="stroke-linecap: round; stroke-linejoin: round; stroke-miterlimit: 10;" x1="476" y1="384.5" x2="476" y2="384.5" fill="none" fill-opacity="1" stroke="#ffffff" stroke-opacity="1" data-original-stroke-color="#000000ff" stroke-width="25" data-original-stroke-width="15"/>
		
			<line style="stroke-linecap: round; stroke-linejoin: round; stroke-miterlimit: 10;" x1="436" y1="354.5" x2="436" y2="354.5" fill="none" fill-opacity="1" stroke="#ffffff" stroke-opacity="1" data-original-stroke-color="#000000ff" stroke-width="25" data-original-stroke-width="15"/>
		
			<line style="stroke-linecap: round; stroke-linejoin: round; stroke-miterlimit: 10;" x1="436" y1="264.5" x2="436" y2="264.5" fill="none" fill-opacity="1" stroke="#ffffff" stroke-opacity="1" data-original-stroke-color="#000000ff" stroke-width="25" data-original-stroke-width="15"/>
		
			<line style="stroke-linecap: round; stroke-linejoin: round; stroke-miterlimit: 10;" x1="476" y1="294.5" x2="476" y2="294.5" fill="none" fill-opacity="1" stroke="#ffffff" stroke-opacity="1" data-original-stroke-color="#000000ff" stroke-width="25" data-original-stroke-width="15"/>
		
			<line style="stroke-linecap: round; stroke-linejoin: round; stroke-miterlimit: 10;" x1="396" y1="294.5" x2="396" y2="294.5" fill="none" fill-opacity="1" stroke="#ffffff" stroke-opacity="1" data-original-stroke-color="#000000ff" stroke-width="25" data-original-stroke-width="15"/>
	</g>
</g></g></svg>