<svg version="1.1" id="svg3447" xml:space="preserve" width="300" height="300" viewBox="0 0 682.66669 682.66669" xmlns="http://www.w3.org/2000/svg" xmlns:svg="http://www.w3.org/2000/svg" xmlns:xlink="http://www.w3.org/1999/xlink" xmlns:svgjs="http://svgjs.dev/svgjs"><g width="100%" height="100%" transform="matrix(1,0,0,1,0,0)"><defs id="defs3451"><clipPath clipPathUnits="userSpaceOnUse" id="clipPath3461"><path d="M 0,512 H 512 V 0 H 0 Z" id="path3459" fill="#ffffff" fill-opacity="1" data-original-color="#000000ff" stroke="none" stroke-opacity="1"/></clipPath></defs><g id="g3453" transform="matrix(1.3333333,0,0,-1.3333333,0,682.66667)"><g id="g3455"><g id="g3457" clip-path="url(#clipPath3461)"><g id="g3463" transform="translate(285.0933,162.9865)"><path d="m 0,0 c 71.358,-3.844 125.297,-21.563 125.297,-42.841 0,-24.088 -69.123,-43.615 -154.39,-43.615 -85.268,0 -154.39,19.527 -154.39,43.615 0,21.278 53.938,38.997 125.296,42.841" style="stroke-linecap: round; stroke-linejoin: round; stroke-miterlimit: 10; stroke-dasharray: none;" id="path3465" fill="none" fill-opacity="1" stroke="#ffffff" stroke-opacity="1" data-original-stroke-color="#000000ff" stroke-width="25" data-original-stroke-width="30"/></g><g id="g3467" transform="translate(50.8936,139.882)"><path d="m 0,0 c -22.75,-12.498 -35.894,-27.228 -35.894,-43.003 0,-45.221 107.9,-81.879 241,-81.879 133.101,0 241,36.658 241,81.879 0,15.775 -13.143,30.505 -35.893,43.003" style="stroke-linecap: round; stroke-linejoin: round; stroke-miterlimit: 10; stroke-dasharray: none;" id="path3469" fill="none" fill-opacity="1" stroke="#ffffff" stroke-opacity="1" data-original-stroke-color="#000000ff" stroke-width="25" data-original-stroke-width="30"/></g><g id="g3471" transform="translate(256,341.0889)"><path d="m 0,0 c -22.669,0 -41.046,18.377 -41.046,41.045 0,22.669 18.377,41.046 41.046,41.046 22.669,0 41.046,-18.377 41.046,-41.046 C 41.046,18.377 22.669,0 0,0 Z m 0,155.911 c -68.727,0 -124.441,-55.713 -124.441,-124.438 0,-47.721 69.724,-167.798 104.791,-225.172 8.984,-14.698 30.316,-14.698 39.3,0 35.067,57.374 104.791,177.451 104.791,225.172 0,68.725 -55.714,124.438 -124.441,124.438 z" style="stroke-linecap: round; stroke-linejoin: round; stroke-miterlimit: 10; stroke-dasharray: none;" id="path3473" fill="none" fill-opacity="1" stroke="#ffffff" stroke-opacity="1" data-original-stroke-color="#000000ff" stroke-width="25" data-original-stroke-width="30"/></g></g></g></g></g></svg>