<svg version="1.1" id="Capa_1" xmlns="http://www.w3.org/2000/svg" xmlns:xlink="http://www.w3.org/1999/xlink" x="0px" y="0px" viewBox="0 0 512 512" style="enable-background:new 0 0 512 512;" xml:space="preserve" width="300" height="300" xmlns:svgjs="http://svgjs.dev/svgjs"><g width="100%" height="100%" transform="matrix(1,0,0,1,0,0)"><g>
	<path style="stroke-linecap: round; stroke-linejoin: round; stroke-miterlimit: 10;" d="&#10;&#9;&#9;M414.955,163.432c21.504,33.677,33.967,73.686,33.967,116.607C448.922,399.863,351.786,497,231.961,497S15,399.863,15,280.039&#10;&#9;&#9;S112.137,63.078,231.961,63.078c43.212,0,83.473,12.633,117.291,34.406" fill="none" fill-opacity="1" stroke="#ffffff" stroke-opacity="1" data-original-stroke-color="#000000ff" stroke-width="25" data-original-stroke-width="30"/>
	
		<circle style="stroke-linecap: round; stroke-linejoin: round; stroke-miterlimit: 10;" cx="231.961" cy="280.039" r="135.965" fill="none" fill-opacity="1" stroke="#ffffff" stroke-opacity="1" data-original-stroke-color="#000000ff" stroke-width="25" data-original-stroke-width="30"/>
	
		<circle style="stroke-linecap: round; stroke-linejoin: round; stroke-miterlimit: 10;" cx="231.961" cy="280.039" r="55.002" fill="none" fill-opacity="1" stroke="#ffffff" stroke-opacity="1" data-original-stroke-color="#000000ff" stroke-width="25" data-original-stroke-width="30"/>
	
		<line style="stroke-linecap: round; stroke-linejoin: round; stroke-miterlimit: 10;" x1="443.281" y1="68.719" x2="497" y2="15" fill="none" fill-opacity="1" stroke="#ffffff" stroke-opacity="1" data-original-stroke-color="#000000ff" stroke-width="25" data-original-stroke-width="30"/>
	
		<line style="stroke-linecap: round; stroke-linejoin: round; stroke-miterlimit: 10;" x1="231.961" y1="280.039" x2="357.226" y2="154.774" fill="none" fill-opacity="1" stroke="#ffffff" stroke-opacity="1" data-original-stroke-color="#000000ff" stroke-width="25" data-original-stroke-width="30"/>
	
		<polygon style="stroke-linecap: round; stroke-linejoin: round; stroke-miterlimit: 10;" points="&#10;&#9;&#9;351.393,96.6 431.001,16.992 436.834,75.166 495.008,80.999 415.4,160.607 357.226,154.774 &#9;" fill="none" fill-opacity="1" stroke="#ffffff" stroke-opacity="1" data-original-stroke-color="#000000ff" stroke-width="25" data-original-stroke-width="30"/>
</g><g>
</g><g>
</g><g>
</g><g>
</g><g>
</g><g>
</g><g>
</g><g>
</g><g>
</g><g>
</g><g>
</g><g>
</g><g>
</g><g>
</g><g>
</g></g></svg>