<svg xmlns="http://www.w3.org/2000/svg" xmlns:xlink="http://www.w3.org/1999/xlink" version="1.1" id="Capa_1" x="0px" y="0px" viewBox="0 0 512 512" style="enable-background:new 0 0 512 512;" xml:space="preserve" width="300" height="300" xmlns:svgjs="http://svgjs.dev/svgjs"><g width="100%" height="100%" transform="matrix(1,0,0,1,0,0)"><g>
	<polyline style="stroke-miterlimit: 10;" points="286,26 286,119 379,119 &#9;" fill="none" fill-opacity="1" stroke="#ffffff" stroke-opacity="1" data-original-stroke-color="#000000ff" stroke-width="25" data-original-stroke-width="30"/>
	<polyline style="stroke-miterlimit: 10;" points="390,272 390,119 286,15 27,15 27,497 &#10;&#9;&#9;371.5,497 &#9;" fill="none" fill-opacity="1" stroke="#ffffff" stroke-opacity="1" data-original-stroke-color="#000000ff" stroke-width="25" data-original-stroke-width="30"/>
	<line style="stroke-miterlimit: 10;" x1="72" y1="119" x2="192" y2="119" fill="none" fill-opacity="1" stroke="#ffffff" stroke-opacity="1" data-original-stroke-color="#000000ff" stroke-width="25" data-original-stroke-width="30"/>
	<line style="stroke-miterlimit: 10;" x1="72" y1="437" x2="192" y2="437" fill="none" fill-opacity="1" stroke="#ffffff" stroke-opacity="1" data-original-stroke-color="#000000ff" stroke-width="25" data-original-stroke-width="30"/>
	<line style="stroke-miterlimit: 10;" x1="100" y1="314" x2="286" y2="314" fill="none" fill-opacity="1" stroke="#ffffff" stroke-opacity="1" data-original-stroke-color="#000000ff" stroke-width="25" data-original-stroke-width="30"/>
	<line style="stroke-miterlimit: 10;" x1="145" y1="313" x2="145" y2="215" fill="none" fill-opacity="1" stroke="#ffffff" stroke-opacity="1" data-original-stroke-color="#000000ff" stroke-width="25" data-original-stroke-width="30"/>
	<line style="stroke-miterlimit: 10;" x1="205" y1="313" x2="205" y2="172" fill="none" fill-opacity="1" stroke="#ffffff" stroke-opacity="1" data-original-stroke-color="#000000ff" stroke-width="25" data-original-stroke-width="30"/>
	<line style="stroke-miterlimit: 10;" x1="265" y1="313" x2="265" y2="215" fill="none" fill-opacity="1" stroke="#ffffff" stroke-opacity="1" data-original-stroke-color="#000000ff" stroke-width="25" data-original-stroke-width="30"/>
	<circle style="stroke-miterlimit: 10;" cx="371.5" cy="383.5" r="113.5" fill="none" fill-opacity="1" stroke="#ffffff" stroke-opacity="1" data-original-stroke-color="#000000ff" stroke-width="25" data-original-stroke-width="30"/>
	<path style="stroke-miterlimit: 10;" d="M405.764,397.037&#10;&#9;&#9;c0-18.923-34.264-61.338-34.264-61.338s-34.264,42.415-34.264,61.338s15.34,34.264,34.264,34.264S405.764,415.961,405.764,397.037z&#10;&#9;&#9;" fill="none" fill-opacity="1" stroke="#ffffff" stroke-opacity="1" data-original-stroke-color="#000000ff" stroke-width="25" data-original-stroke-width="30"/>
	<line style="stroke-miterlimit: 10;" x1="72" y1="377" x2="257" y2="377" fill="none" fill-opacity="1" stroke="#ffffff" stroke-opacity="1" data-original-stroke-color="#000000ff" stroke-width="25" data-original-stroke-width="30"/>
</g></g></svg>